<svg width="360" height="800" viewBox="0 0 360 800" fill="none" xmlns="http://www.w3.org/2000/svg">
<g clip-path="url(#clip0_3_22)">
<rect width="360" height="800" fill="black"/>
<path d="M18.4066 16.0909V27H16.4304V18.0138H16.3665L13.815 19.6438V17.8327L16.5263 16.0909H18.4066ZM20.6765 27V25.5724L24.4638 21.8597C24.826 21.4939 25.1278 21.169 25.3693 20.8849C25.6108 20.6008 25.7919 20.3256 25.9126 20.0593C26.0334 19.7929 26.0938 19.5088 26.0938 19.207C26.0938 18.8625 26.0156 18.5678 25.8594 18.3228C25.7031 18.0742 25.4883 17.8824 25.2148 17.7475C24.9414 17.6125 24.6307 17.5451 24.2827 17.5451C23.924 17.5451 23.6097 17.6196 23.3398 17.7688C23.07 17.9144 22.8604 18.1221 22.7113 18.392C22.5657 18.6619 22.4929 18.9833 22.4929 19.3561H20.6126C20.6126 18.6637 20.7706 18.0618 21.0866 17.5504C21.4027 17.039 21.8377 16.6431 22.3917 16.3625C22.9492 16.082 23.5884 15.9417 24.3093 15.9417C25.0408 15.9417 25.6836 16.0784 26.2376 16.3519C26.7915 16.6253 27.2212 17 27.5266 17.4758C27.8356 17.9517 27.9901 18.495 27.9901 19.1058C27.9901 19.5142 27.9119 19.9155 27.7557 20.3096C27.5994 20.7038 27.3242 21.1406 26.93 21.62C26.5394 22.0994 25.9908 22.68 25.2841 23.3618L23.4038 25.2741V25.3487H28.1552V27H20.6765ZM30.7021 25.6896C30.3789 25.6896 30.1019 25.576 29.8711 25.3487C29.6403 25.1179 29.5266 24.8409 29.5302 24.5177C29.5266 24.1981 29.6403 23.9247 29.8711 23.6974C30.1019 23.4701 30.3789 23.3565 30.7021 23.3565C31.0146 23.3565 31.2862 23.4701 31.517 23.6974C31.7514 23.9247 31.8704 24.1981 31.8739 24.5177C31.8704 24.7343 31.8136 24.9314 31.7035 25.109C31.5969 25.2865 31.4549 25.4286 31.2773 25.5351C31.1033 25.6381 30.9116 25.6896 30.7021 25.6896ZM30.7021 20.283C30.3789 20.283 30.1019 20.1694 29.8711 19.9421C29.6403 19.7113 29.5266 19.4343 29.5302 19.1111C29.5266 18.7915 29.6403 18.5181 29.8711 18.2908C30.1019 18.06 30.3789 17.9446 30.7021 17.9446C31.0146 17.9446 31.2862 18.06 31.517 18.2908C31.7514 18.5181 31.8704 18.7915 31.8739 19.1111C31.8704 19.3242 31.8136 19.5195 31.7035 19.6971C31.5969 19.8746 31.4549 20.0167 31.2773 20.1232C31.1033 20.2297 30.9116 20.283 30.7021 20.283ZM37.2586 27.1491C36.4916 27.1491 35.8097 27.0177 35.2132 26.7549C34.6201 26.4922 34.1514 26.1264 33.8069 25.6576C33.4624 25.1889 33.2796 24.6473 33.2583 24.033H35.2611C35.2789 24.3277 35.3765 24.5852 35.5541 24.8054C35.7316 25.022 35.9678 25.1907 36.2625 25.3114C36.5573 25.4321 36.8875 25.4925 37.2533 25.4925C37.6439 25.4925 37.9901 25.425 38.292 25.2901C38.5938 25.1516 38.83 24.9598 39.0004 24.7148C39.1709 24.4698 39.2544 24.1875 39.2508 23.8679C39.2544 23.5376 39.1691 23.2464 38.9951 22.9943C38.8211 22.7422 38.569 22.5451 38.2387 22.403C37.912 22.261 37.5178 22.19 37.0562 22.19H36.0921V20.6665H37.0562C37.4362 20.6665 37.7682 20.6008 38.0523 20.4694C38.3399 20.338 38.5654 20.1534 38.7288 19.9155C38.8921 19.674 38.972 19.3952 38.9685 19.0792C38.972 18.7702 38.9028 18.5021 38.7607 18.2748C38.6222 18.044 38.4252 17.8647 38.1695 17.7368C37.9173 17.609 37.6208 17.5451 37.2799 17.5451C36.9461 17.5451 36.6372 17.6054 36.3531 17.7262C36.069 17.8469 35.8399 18.0191 35.6659 18.2429C35.4919 18.463 35.3996 18.7258 35.3889 19.0312H33.4873C33.5015 18.4204 33.6773 17.8842 34.0146 17.4226C34.3556 16.9574 34.8101 16.5951 35.3783 16.3359C35.9465 16.0731 36.5839 15.9417 37.2906 15.9417C38.0186 15.9417 38.6507 16.0784 39.1869 16.3519C39.7267 16.6218 40.1439 16.9858 40.4387 17.4439C40.7334 17.902 40.8808 18.408 40.8808 18.962C40.8843 19.5763 40.7032 20.0912 40.3374 20.5067C39.9752 20.9222 39.4994 21.1939 38.9099 21.3217V21.4069C39.6769 21.5135 40.2646 21.7976 40.673 22.2592C41.085 22.7173 41.2892 23.2873 41.2856 23.9691C41.2856 24.5799 41.1116 25.1267 40.7636 25.6097C40.4191 26.0891 39.9433 26.4655 39.336 26.739C38.7323 27.0124 38.0399 27.1491 37.2586 27.1491ZM46.6463 27.2077C45.7692 27.2077 45.0163 26.9858 44.3878 26.5419C43.7628 26.0944 43.2816 25.4499 42.9442 24.6083C42.6104 23.7631 42.4435 22.7457 42.4435 21.5561C42.4471 20.3664 42.6158 19.3544 42.9496 18.5199C43.2869 17.6818 43.7681 17.0426 44.3931 16.6022C45.0217 16.1619 45.7727 15.9417 46.6463 15.9417C47.5199 15.9417 48.271 16.1619 48.8995 16.6022C49.5281 17.0426 50.0092 17.6818 50.343 18.5199C50.6804 19.3579 50.8491 20.37 50.8491 21.5561C50.8491 22.7493 50.6804 23.7684 50.343 24.6136C50.0092 25.4552 49.5281 26.098 48.8995 26.5419C48.2745 26.9858 47.5234 27.2077 46.6463 27.2077ZM46.6463 25.5405C47.3281 25.5405 47.8661 25.2049 48.2603 24.5337C48.658 23.859 48.8569 22.8664 48.8569 21.5561C48.8569 20.6896 48.7663 19.9616 48.5852 19.3721C48.4041 18.7826 48.1484 18.3387 47.8182 18.0405C47.4879 17.7386 47.0973 17.5877 46.6463 17.5877C45.968 17.5877 45.4318 17.925 45.0376 18.5998C44.6435 19.2709 44.4446 20.2564 44.4411 21.5561C44.4375 22.4261 44.5245 23.1576 44.7021 23.7507C44.8832 24.3437 45.1388 24.7912 45.4691 25.093C45.7994 25.3913 46.1918 25.5405 46.6463 25.5405Z" fill="white"/>
<path d="M311.731 18.2205C312.035 18.4297 312.082 18.8568 311.852 19.1447L305.683 26.8423C305.16 27.497 304.167 27.497 303.644 26.8423L297.475 19.1447C297.244 18.8568 297.292 18.4296 297.595 18.2201C298.671 17.4777 301.214 16 304.663 16C308.109 16 310.655 17.4782 311.731 18.2205Z" fill="white"/>
<path d="M346.663 17.6667C346.663 17.1144 346.216 16.6667 345.663 16.6667H344.663V15.3333H340.663V16.6667H339.663C339.111 16.6667 338.663 17.1144 338.663 17.6667V27.6667C338.663 28.219 339.111 28.6667 339.663 28.6667H345.663C346.216 28.6667 346.663 28.219 346.663 27.6667V17.6667Z" fill="white"/>
<path d="M327.525 16.4714C327.945 16.0514 328.663 16.3489 328.663 16.9428V27.3334C328.663 28.0697 328.066 28.6667 327.33 28.6667H316.94C316.346 28.6667 316.048 27.9486 316.468 27.5286L327.525 16.4714Z" fill="white"/>
<circle cx="180" cy="22" r="9" fill="#BAC0CA"/>
<rect x="113" y="787" width="134" height="5" rx="2.5" fill="#545F71"/>
<circle cx="329" cy="76" r="18" fill="#828A98"/>
<path d="M325.195 77.75V77.6406H326.961V77.7656C326.961 78.4531 327.128 78.9609 327.461 79.2891C327.794 79.6172 328.26 79.7812 328.859 79.7812C329.464 79.7812 329.932 79.6016 330.266 79.2422C330.599 78.8776 330.766 78.3229 330.766 77.5781V69.625H332.547V77.5156C332.547 78.6771 332.211 79.5859 331.539 80.2422C330.872 80.8984 329.984 81.2266 328.875 81.2266C327.766 81.2266 326.875 80.9271 326.203 80.3281C325.531 79.724 325.195 78.8646 325.195 77.75Z" fill="white"/>
<rect x="13" y="259" width="334" height="223" rx="24" fill="#005EB8"/>
<circle cx="41" cy="289" r="14.75" fill="#005EB8" stroke="white" stroke-width="0.5"/>
<g clip-path="url(#clip1_3_22)">
<path d="M53 284H29V293H53V284Z" fill="white"/>
<path d="M31.3459 284.868H33.9564L35.5568 289.893H35.581L36.6787 284.868H38.6506L36.992 292.114H34.3935L32.7568 287.1H32.7349L31.6494 292.114H29.6775L31.3459 284.868Z" fill="#005EB8"/>
<path d="M39.4204 284.868H41.5161L40.8993 287.641H43.3763L43.9931 284.868H46.0889L44.4642 292.114H42.3564L43.0509 289.011H40.586L39.8915 292.114H37.7982L39.4204 284.868Z" fill="#005EB8"/>
<path d="M51.599 286.509C51.0618 286.28 50.4757 286.166 49.8845 286.176C49.0564 286.176 48.3837 286.291 48.3837 286.871C48.3837 287.899 51.4193 287.515 51.4193 289.715C51.4193 291.718 49.4134 292.237 47.5993 292.237C46.7749 292.219 45.9573 292.094 45.1709 291.864L45.6566 290.39C46.0719 290.64 46.9 290.806 47.5823 290.806C48.2647 290.806 49.2507 290.692 49.2507 289.945C49.2507 288.781 46.2151 289.218 46.2151 287.173C46.2151 285.305 47.9855 284.743 49.6999 284.743C50.6713 284.743 51.5698 284.837 52.0968 285.064L51.599 286.509Z" fill="#005EB8"/>
</g>
<line x1="13" y1="317.5" x2="347" y2="317.5" stroke="#4A82B8"/>
<path d="M73.1279 294V284.047H74.7002V288.237H79.3828V284.047H80.9551V294H79.3828V289.495H74.7002V294H73.1279ZM83.2178 294V284.047H86.5879C87.6862 284.047 88.5361 284.316 89.1377 284.854C89.7393 285.391 90.04 286.123 90.04 287.048C90.04 287.968 89.737 288.707 89.1309 289.263C88.5293 289.814 87.6816 290.09 86.5879 290.09H84.79V294H83.2178ZM84.79 288.859H86.5605C87.2715 288.859 87.766 288.688 88.0439 288.347C88.3265 288 88.4678 287.567 88.4678 287.048C88.4678 286.533 88.3265 286.109 88.0439 285.776C87.766 285.444 87.2715 285.277 86.5605 285.277H84.79V288.859ZM88.7959 294L86.3965 289.406L87.9961 289.242L90.5527 294H88.7959ZM90.3887 285.298V284.047H98.2021V285.298H95.0781V294H93.5059V285.298H90.3887ZM102.632 294V284.047H106.091C107.207 284.047 108.064 284.323 108.661 284.874C109.263 285.425 109.563 286.177 109.563 287.13C109.563 288.082 109.263 288.839 108.661 289.399C108.064 289.96 107.207 290.24 106.091 290.24H104.204V294H102.632ZM104.204 288.996H106.029C106.758 288.996 107.267 288.821 107.554 288.47C107.845 288.114 107.991 287.668 107.991 287.13C107.991 286.592 107.845 286.152 107.554 285.811C107.267 285.464 106.758 285.291 106.029 285.291H104.204V288.996ZM110.883 294V286.802H112.291L112.346 287.677H112.387C112.555 287.39 112.781 287.139 113.063 286.925C113.346 286.706 113.676 286.597 114.055 286.597C114.15 286.597 114.251 286.608 114.355 286.631C114.465 286.654 114.54 286.674 114.581 286.692V288.066C114.494 288.048 114.403 288.035 114.308 288.025C114.212 288.012 114.105 288.005 113.986 288.005C113.613 288.005 113.289 288.107 113.016 288.312C112.742 288.518 112.539 288.773 112.407 289.078V294H110.883ZM115.21 290.507V290.288C115.21 289.194 115.52 288.306 116.14 287.622C116.759 286.938 117.571 286.597 118.573 286.597C119.576 286.597 120.353 286.918 120.904 287.561C121.456 288.199 121.731 289.067 121.731 290.165V290.76H116.194V289.659H120.214V289.502C120.214 289.023 120.075 288.618 119.797 288.285C119.519 287.948 119.122 287.779 118.607 287.779C117.988 287.779 117.523 288.014 117.213 288.483C116.903 288.948 116.748 289.538 116.748 290.254V290.548C116.748 291.254 116.912 291.842 117.24 292.312C117.573 292.776 118.076 293.009 118.751 293.009C119.184 293.009 119.555 292.911 119.865 292.715C120.18 292.519 120.435 292.289 120.631 292.024L121.656 292.77C121.428 293.143 121.064 293.476 120.562 293.768C120.066 294.059 119.466 294.205 118.765 294.205C117.63 294.205 116.753 293.863 116.133 293.18C115.518 292.496 115.21 291.605 115.21 290.507ZM122.743 291.826L124.254 291.833V291.888C124.254 292.28 124.393 292.571 124.671 292.763C124.953 292.954 125.327 293.05 125.792 293.05C126.257 293.05 126.619 292.959 126.879 292.776C127.139 292.59 127.269 292.35 127.269 292.059C127.269 291.762 127.155 291.537 126.927 291.382C126.703 291.227 126.202 291.063 125.423 290.89C124.625 290.707 124.01 290.448 123.577 290.11C123.144 289.769 122.928 289.304 122.928 288.716C122.928 288.091 123.183 287.583 123.693 287.191C124.204 286.795 124.89 286.597 125.751 286.597C126.608 286.597 127.296 286.797 127.815 287.198C128.34 287.595 128.602 288.132 128.602 288.812V288.866H127.091V288.784C127.091 288.465 126.981 288.215 126.763 288.032C126.544 287.85 126.204 287.759 125.744 287.759C125.288 287.759 124.956 287.841 124.746 288.005C124.536 288.169 124.432 288.376 124.432 288.627C124.432 288.878 124.555 289.078 124.801 289.229C125.047 289.374 125.562 289.536 126.346 289.714C127.143 289.892 127.747 290.154 128.157 290.5C128.572 290.842 128.779 291.329 128.779 291.963C128.779 292.633 128.529 293.175 128.027 293.59C127.526 294 126.781 294.205 125.792 294.205C124.808 294.205 124.053 293.998 123.529 293.583C123.005 293.164 122.743 292.594 122.743 291.874V291.826ZM129.866 290.507V290.288C129.866 289.185 130.174 288.294 130.789 287.615C131.409 286.936 132.247 286.597 133.305 286.597C134.289 286.597 135.039 286.856 135.554 287.376C136.069 287.896 136.333 288.486 136.347 289.146V289.215H134.87V289.16C134.87 288.791 134.743 288.472 134.487 288.203C134.237 287.93 133.84 287.793 133.298 287.793C132.664 287.793 132.193 288.028 131.883 288.497C131.577 288.962 131.425 289.548 131.425 290.254V290.548C131.425 291.254 131.575 291.842 131.876 292.312C132.181 292.776 132.655 293.009 133.298 293.009C133.854 293.009 134.253 292.872 134.494 292.599C134.74 292.321 134.863 291.999 134.863 291.635V291.587H136.347V291.642C136.347 292.302 136.085 292.895 135.561 293.419C135.041 293.943 134.289 294.205 133.305 294.205C132.247 294.205 131.409 293.866 130.789 293.187C130.174 292.503 129.866 291.61 129.866 290.507ZM137.748 294V286.802H139.156L139.211 287.677H139.252C139.421 287.39 139.646 287.139 139.929 286.925C140.211 286.706 140.542 286.597 140.92 286.597C141.016 286.597 141.116 286.608 141.221 286.631C141.33 286.654 141.405 286.674 141.446 286.692V288.066C141.36 288.048 141.269 288.035 141.173 288.025C141.077 288.012 140.97 288.005 140.852 288.005C140.478 288.005 140.154 288.107 139.881 288.312C139.607 288.518 139.405 288.773 139.272 289.078V294H137.748ZM142.677 294V286.802H144.208V294H142.677ZM142.513 284.689C142.513 284.443 142.592 284.236 142.752 284.067C142.911 283.899 143.142 283.814 143.442 283.814C143.739 283.814 143.966 283.899 144.126 284.067C144.285 284.236 144.365 284.443 144.365 284.689C144.365 284.931 144.285 285.136 144.126 285.305C143.966 285.473 143.739 285.558 143.442 285.558C143.142 285.558 142.911 285.473 142.752 285.305C142.592 285.136 142.513 284.931 142.513 284.689ZM146.197 296.844V286.802H147.599L147.646 287.697H147.688C147.861 287.406 148.134 287.162 148.508 286.966C148.882 286.765 149.31 286.665 149.793 286.665C150.709 286.665 151.443 287.002 151.994 287.677C152.55 288.351 152.828 289.222 152.828 290.288V290.507C152.828 291.573 152.552 292.446 152.001 293.125C151.454 293.799 150.725 294.137 149.813 294.137C149.33 294.137 148.911 294.052 148.556 293.884C148.2 293.711 147.922 293.48 147.722 293.193V296.844H146.197ZM147.722 291.778C147.849 292.079 148.063 292.348 148.364 292.585C148.67 292.817 149.032 292.934 149.451 292.934C150.076 292.934 150.534 292.71 150.825 292.264C151.121 291.817 151.27 291.245 151.27 290.548V290.254C151.27 289.557 151.121 288.985 150.825 288.538C150.534 288.091 150.076 287.868 149.451 287.868C149.023 287.868 148.66 287.984 148.364 288.217C148.068 288.449 147.854 288.714 147.722 289.01V291.778ZM153.389 287.943V286.802H157.6V287.943H153.389ZM154.605 292.1V287.451V287.246V285.052H156.123V292.086C156.123 292.405 156.187 292.633 156.314 292.77C156.442 292.902 156.631 292.968 156.882 292.968C157.005 292.968 157.123 292.954 157.237 292.927C157.356 292.899 157.474 292.863 157.593 292.817V294C157.479 294.055 157.326 294.103 157.135 294.144C156.943 294.185 156.734 294.205 156.506 294.205C155.927 294.205 155.465 294.036 155.118 293.699C154.776 293.357 154.605 292.824 154.605 292.1ZM158.946 294V286.802H160.478V294H158.946ZM158.782 284.689C158.782 284.443 158.862 284.236 159.021 284.067C159.181 283.899 159.411 283.814 159.712 283.814C160.008 283.814 160.236 283.899 160.396 284.067C160.555 284.236 160.635 284.443 160.635 284.689C160.635 284.931 160.555 285.136 160.396 285.305C160.236 285.473 160.008 285.558 159.712 285.558C159.411 285.558 159.181 285.473 159.021 285.305C158.862 285.136 158.782 284.931 158.782 284.689ZM162.05 290.507V290.288C162.05 289.19 162.369 288.301 163.007 287.622C163.649 286.938 164.497 286.597 165.55 286.597C166.603 286.597 167.448 286.938 168.086 287.622C168.724 288.301 169.043 289.19 169.043 290.288V290.507C169.043 291.61 168.724 292.503 168.086 293.187C167.448 293.866 166.603 294.205 165.55 294.205C164.497 294.205 163.649 293.866 163.007 293.187C162.369 292.503 162.05 291.61 162.05 290.507ZM163.608 290.254V290.548C163.608 291.268 163.772 291.856 164.101 292.312C164.429 292.767 164.912 292.995 165.55 292.995C166.183 292.995 166.664 292.767 166.992 292.312C167.32 291.856 167.484 291.268 167.484 290.548V290.254C167.484 289.534 167.318 288.946 166.985 288.49C166.657 288.03 166.179 287.8 165.55 287.8C164.916 287.8 164.433 288.03 164.101 288.49C163.772 288.946 163.608 289.534 163.608 290.254ZM170.574 294V286.802H171.982L172.037 287.684H172.071C172.308 287.374 172.614 287.125 172.987 286.938C173.361 286.752 173.773 286.658 174.225 286.658C174.954 286.658 175.539 286.868 175.981 287.287C176.424 287.702 176.645 288.406 176.645 289.399V294H175.12V289.372C175.12 288.839 175.002 288.461 174.765 288.237C174.532 288.009 174.197 287.896 173.76 287.896C173.395 287.896 173.067 287.996 172.775 288.196C172.484 288.397 172.258 288.663 172.099 288.996V294H170.574ZM182.093 294V284.047H185.552C186.668 284.047 187.525 284.323 188.122 284.874C188.724 285.425 189.024 286.177 189.024 287.13C189.024 288.082 188.724 288.839 188.122 289.399C187.525 289.96 186.668 290.24 185.552 290.24H183.665V294H182.093ZM183.665 288.996H185.49C186.219 288.996 186.728 288.821 187.015 288.47C187.306 288.114 187.452 287.668 187.452 287.13C187.452 286.592 187.306 286.152 187.015 285.811C186.728 285.464 186.219 285.291 185.49 285.291H183.665V288.996ZM190.344 294V286.802H191.752L191.807 287.677H191.848C192.016 287.39 192.242 287.139 192.524 286.925C192.807 286.706 193.137 286.597 193.516 286.597C193.611 286.597 193.712 286.608 193.816 286.631C193.926 286.654 194.001 286.674 194.042 286.692V288.066C193.955 288.048 193.864 288.035 193.769 288.025C193.673 288.012 193.566 288.005 193.447 288.005C193.074 288.005 192.75 288.107 192.477 288.312C192.203 288.518 192 288.773 191.868 289.078V294H190.344ZM194.671 290.507V290.288C194.671 289.194 194.981 288.306 195.601 287.622C196.22 286.938 197.032 286.597 198.034 286.597C199.037 286.597 199.814 286.918 200.365 287.561C200.917 288.199 201.192 289.067 201.192 290.165V290.76H195.655V289.659H199.675V289.502C199.675 289.023 199.536 288.618 199.258 288.285C198.98 287.948 198.583 287.779 198.068 287.779C197.449 287.779 196.984 288.014 196.674 288.483C196.364 288.948 196.209 289.538 196.209 290.254V290.548C196.209 291.254 196.373 291.842 196.701 292.312C197.034 292.776 197.537 293.009 198.212 293.009C198.645 293.009 199.016 292.911 199.326 292.715C199.641 292.519 199.896 292.289 200.092 292.024L201.117 292.77C200.889 293.143 200.525 293.476 200.023 293.768C199.527 294.059 198.927 294.205 198.226 294.205C197.091 294.205 196.214 293.863 195.594 293.18C194.979 292.496 194.671 291.605 194.671 290.507ZM202.662 296.844V286.802H204.063L204.111 287.697H204.152C204.326 287.406 204.599 287.162 204.973 286.966C205.346 286.765 205.775 286.665 206.258 286.665C207.174 286.665 207.908 287.002 208.459 287.677C209.015 288.351 209.293 289.222 209.293 290.288V290.507C209.293 291.573 209.017 292.446 208.466 293.125C207.919 293.799 207.19 294.137 206.278 294.137C205.795 294.137 205.376 294.052 205.021 293.884C204.665 293.711 204.387 293.48 204.187 293.193V296.844H202.662ZM204.187 291.778C204.314 292.079 204.528 292.348 204.829 292.585C205.134 292.817 205.497 292.934 205.916 292.934C206.54 292.934 206.998 292.71 207.29 292.264C207.586 291.817 207.734 291.245 207.734 290.548V290.254C207.734 289.557 207.586 288.985 207.29 288.538C206.998 288.091 206.54 287.868 205.916 287.868C205.488 287.868 205.125 287.984 204.829 288.217C204.533 288.449 204.319 288.714 204.187 289.01V291.778ZM210.441 291.881C210.441 291.124 210.738 290.546 211.33 290.145C211.923 289.739 212.672 289.534 213.579 289.529H215.131V289.071C215.131 288.675 215.028 288.354 214.823 288.107C214.618 287.857 214.265 287.731 213.764 287.731C213.258 287.731 212.896 287.834 212.677 288.039C212.463 288.244 212.355 288.486 212.355 288.764V288.825H210.845V288.764C210.845 288.167 211.114 287.656 211.651 287.232C212.194 286.809 212.914 286.597 213.812 286.597C214.709 286.597 215.407 286.802 215.903 287.212C216.405 287.622 216.655 288.242 216.655 289.071V292.366C216.655 292.662 216.678 292.943 216.724 293.207C216.774 293.467 216.842 293.695 216.929 293.891V294H215.438C215.379 293.891 215.325 293.747 215.274 293.569C215.224 293.387 215.192 293.209 215.179 293.036C215.024 293.323 214.755 293.578 214.372 293.802C213.989 294.025 213.502 294.137 212.909 294.137C212.221 294.137 211.638 293.945 211.159 293.562C210.681 293.18 210.441 292.619 210.441 291.881ZM211.966 291.771C211.966 292.15 212.075 292.451 212.294 292.674C212.513 292.893 212.857 293.002 213.326 293.002C213.8 293.002 214.219 292.842 214.584 292.523C214.949 292.2 215.131 291.847 215.131 291.464V290.548H213.764C213.167 290.548 212.718 290.657 212.417 290.876C212.116 291.095 211.966 291.393 211.966 291.771ZM217.961 296.844L217.968 295.62C218.086 295.657 218.216 295.686 218.357 295.709C218.503 295.732 218.642 295.743 218.774 295.743C219.089 295.743 219.362 295.632 219.595 295.408C219.832 295.185 220.066 294.706 220.299 293.973L220.271 293.966L217.558 286.802H219.062L220.682 291.354C220.745 291.532 220.798 291.699 220.839 291.854C220.884 292.008 220.925 292.157 220.962 292.298H221.003C221.039 292.157 221.08 292.008 221.126 291.854C221.176 291.699 221.229 291.532 221.283 291.354L222.814 286.802H224.223L221.29 294.923C221.053 295.579 220.734 296.085 220.333 296.44C219.937 296.8 219.449 296.98 218.87 296.98C218.679 296.98 218.51 296.969 218.364 296.946C218.223 296.924 218.089 296.889 217.961 296.844ZM225.18 294V286.802H226.588L226.636 287.69H226.677C226.918 287.371 227.219 287.121 227.579 286.938C227.944 286.756 228.34 286.665 228.769 286.665C229.256 286.665 229.678 286.765 230.033 286.966C230.393 287.162 230.664 287.469 230.847 287.889H230.881C231.163 287.469 231.496 287.162 231.879 286.966C232.262 286.765 232.69 286.665 233.164 286.665C233.902 286.665 234.486 286.879 234.914 287.308C235.342 287.731 235.557 288.442 235.557 289.44V294H234.025V289.393C234.025 288.864 233.914 288.483 233.69 288.251C233.467 288.014 233.148 287.896 232.733 287.896C232.369 287.896 232.05 287.998 231.776 288.203C231.503 288.404 231.286 288.668 231.127 288.996V294H229.603V289.399C229.603 288.866 229.491 288.483 229.268 288.251C229.044 288.014 228.721 287.896 228.297 287.896C227.937 287.896 227.62 287.996 227.347 288.196C227.078 288.397 226.864 288.663 226.704 288.996V294H225.18ZM237.013 290.507V290.288C237.013 289.194 237.323 288.306 237.942 287.622C238.562 286.938 239.373 286.597 240.376 286.597C241.379 286.597 242.156 286.918 242.707 287.561C243.258 288.199 243.534 289.067 243.534 290.165V290.76H237.997V289.659H242.017V289.502C242.017 289.023 241.878 288.618 241.6 288.285C241.322 287.948 240.925 287.779 240.41 287.779C239.79 287.779 239.326 288.014 239.016 288.483C238.706 288.948 238.551 289.538 238.551 290.254V290.548C238.551 291.254 238.715 291.842 239.043 292.312C239.376 292.776 239.879 293.009 240.554 293.009C240.987 293.009 241.358 292.911 241.668 292.715C241.982 292.519 242.238 292.289 242.434 292.024L243.459 292.77C243.231 293.143 242.867 293.476 242.365 293.768C241.868 294.059 241.269 294.205 240.567 294.205C239.433 294.205 238.555 293.863 237.936 293.18C237.32 292.496 237.013 291.605 237.013 290.507ZM245.004 294V286.802H246.412L246.467 287.684H246.501C246.738 287.374 247.043 287.125 247.417 286.938C247.791 286.752 248.203 286.658 248.654 286.658C249.383 286.658 249.969 286.868 250.411 287.287C250.853 287.702 251.074 288.406 251.074 289.399V294H249.55V289.372C249.55 288.839 249.431 288.461 249.194 288.237C248.962 288.009 248.627 287.896 248.189 287.896C247.825 287.896 247.497 287.996 247.205 288.196C246.913 288.397 246.688 288.663 246.528 288.996V294H245.004ZM251.977 287.943V286.802H256.188V287.943H251.977ZM253.193 292.1V287.451V287.246V285.052H254.711V292.086C254.711 292.405 254.775 292.633 254.902 292.77C255.03 292.902 255.219 292.968 255.47 292.968C255.593 292.968 255.711 292.954 255.825 292.927C255.944 292.899 256.062 292.863 256.181 292.817V294C256.067 294.055 255.914 294.103 255.723 294.144C255.531 294.185 255.322 294.205 255.094 294.205C254.515 294.205 254.052 294.036 253.706 293.699C253.364 293.357 253.193 292.824 253.193 292.1ZM260.686 289.338V288.709C260.686 287.16 261.084 285.961 261.882 285.113C262.679 284.266 263.693 283.842 264.924 283.842C266.132 283.842 267.082 284.168 267.774 284.819C268.467 285.471 268.813 286.273 268.813 287.226V287.328H267.234V287.219C267.234 286.599 267.043 286.095 266.66 285.708C266.277 285.321 265.696 285.127 264.917 285.127C264.147 285.127 263.516 285.412 263.023 285.981C262.531 286.547 262.285 287.431 262.285 288.634V289.413C262.285 290.525 262.529 291.389 263.017 292.004C263.504 292.615 264.14 292.92 264.924 292.92C265.658 292.92 266.211 292.722 266.585 292.325C266.959 291.929 267.173 291.43 267.228 290.828L267.234 290.719H268.813L268.807 290.828C268.734 291.771 268.369 292.571 267.713 293.228C267.061 293.879 266.132 294.205 264.924 294.205C263.689 294.205 262.673 293.781 261.875 292.934C261.082 292.081 260.686 290.883 260.686 289.338ZM269.88 290.507V290.288C269.88 289.194 270.19 288.306 270.81 287.622C271.429 286.938 272.241 286.597 273.243 286.597C274.246 286.597 275.023 286.918 275.574 287.561C276.126 288.199 276.401 289.067 276.401 290.165V290.76H270.864V289.659H274.884V289.502C274.884 289.023 274.745 288.618 274.467 288.285C274.189 287.948 273.792 287.779 273.277 287.779C272.658 287.779 272.193 288.014 271.883 288.483C271.573 288.948 271.418 289.538 271.418 290.254V290.548C271.418 291.254 271.582 291.842 271.91 292.312C272.243 292.776 272.746 293.009 273.421 293.009C273.854 293.009 274.225 292.911 274.535 292.715C274.85 292.519 275.105 292.289 275.301 292.024L276.326 292.77C276.098 293.143 275.734 293.476 275.232 293.768C274.736 294.059 274.136 294.205 273.435 294.205C272.3 294.205 271.423 293.863 270.803 293.18C270.188 292.496 269.88 291.605 269.88 290.507ZM277.871 294V286.802H279.279L279.334 287.677H279.375C279.544 287.39 279.769 287.139 280.052 286.925C280.334 286.706 280.665 286.597 281.043 286.597C281.139 286.597 281.239 286.608 281.344 286.631C281.453 286.654 281.528 286.674 281.569 286.692V288.066C281.483 288.048 281.392 288.035 281.296 288.025C281.2 288.012 281.093 288.005 280.975 288.005C280.601 288.005 280.277 288.107 280.004 288.312C279.73 288.518 279.528 288.773 279.396 289.078V294H277.871ZM282.123 287.943V286.802H286.334V287.943H282.123ZM283.34 292.1V287.451V287.246V285.052H284.857V292.086C284.857 292.405 284.921 292.633 285.049 292.77C285.176 292.902 285.366 292.968 285.616 292.968C285.739 292.968 285.858 292.954 285.972 292.927C286.09 292.899 286.209 292.863 286.327 292.817V294C286.213 294.055 286.061 294.103 285.869 294.144C285.678 294.185 285.468 294.205 285.24 294.205C284.661 294.205 284.199 294.036 283.853 293.699C283.511 293.357 283.34 292.824 283.34 292.1ZM287.681 294V286.802H289.212V294H287.681ZM287.517 284.689C287.517 284.443 287.596 284.236 287.756 284.067C287.915 283.899 288.146 283.814 288.446 283.814C288.743 283.814 288.97 283.899 289.13 284.067C289.289 284.236 289.369 284.443 289.369 284.689C289.369 284.931 289.289 285.136 289.13 285.305C288.97 285.473 288.743 285.558 288.446 285.558C288.146 285.558 287.915 285.473 287.756 285.305C287.596 285.136 287.517 284.931 287.517 284.689ZM291.495 294V285.934C291.495 285.09 291.725 284.455 292.186 284.026C292.65 283.593 293.266 283.377 294.031 283.377C294.191 283.377 294.346 283.386 294.496 283.404C294.651 283.423 294.797 283.45 294.934 283.486L294.865 284.662C294.77 284.644 294.667 284.628 294.558 284.614C294.448 284.601 294.337 284.594 294.223 284.594C293.84 284.594 293.544 284.708 293.334 284.936C293.124 285.159 293.02 285.496 293.02 285.947V287.28V287.431V294H291.495ZM290.395 287.943V286.802H292.076H292.37H294.489V287.943H290.395ZM295.439 294V286.802H296.971V294H295.439ZM295.275 284.689C295.275 284.443 295.355 284.236 295.515 284.067C295.674 283.899 295.904 283.814 296.205 283.814C296.501 283.814 296.729 283.899 296.889 284.067C297.048 284.236 297.128 284.443 297.128 284.689C297.128 284.931 297.048 285.136 296.889 285.305C296.729 285.473 296.501 285.558 296.205 285.558C295.904 285.558 295.674 285.473 295.515 285.305C295.355 285.136 295.275 284.931 295.275 284.689ZM298.55 290.507V290.288C298.55 289.185 298.857 288.294 299.473 287.615C300.092 286.936 300.931 286.597 301.988 286.597C302.973 286.597 303.722 286.856 304.237 287.376C304.752 287.896 305.017 288.486 305.03 289.146V289.215H303.554V289.16C303.554 288.791 303.426 288.472 303.171 288.203C302.92 287.93 302.524 287.793 301.981 287.793C301.348 287.793 300.876 288.028 300.566 288.497C300.261 288.962 300.108 289.548 300.108 290.254V290.548C300.108 291.254 300.259 291.842 300.56 292.312C300.865 292.776 301.339 293.009 301.981 293.009C302.537 293.009 302.936 292.872 303.178 292.599C303.424 292.321 303.547 291.999 303.547 291.635V291.587H305.03V291.642C305.03 292.302 304.768 292.895 304.244 293.419C303.725 293.943 302.973 294.205 301.988 294.205C300.931 294.205 300.092 293.866 299.473 293.187C298.857 292.503 298.55 291.61 298.55 290.507ZM306.049 291.881C306.049 291.124 306.345 290.546 306.938 290.145C307.53 289.739 308.28 289.534 309.187 289.529H310.738V289.071C310.738 288.675 310.636 288.354 310.431 288.107C310.226 287.857 309.872 287.731 309.371 287.731C308.865 287.731 308.503 287.834 308.284 288.039C308.07 288.244 307.963 288.486 307.963 288.764V288.825H306.452V288.764C306.452 288.167 306.721 287.656 307.259 287.232C307.801 286.809 308.521 286.597 309.419 286.597C310.317 286.597 311.014 286.802 311.511 287.212C312.012 287.622 312.263 288.242 312.263 289.071V292.366C312.263 292.662 312.285 292.943 312.331 293.207C312.381 293.467 312.45 293.695 312.536 293.891V294H311.046C310.987 293.891 310.932 293.747 310.882 293.569C310.832 293.387 310.8 293.209 310.786 293.036C310.631 293.323 310.362 293.578 309.979 293.802C309.597 294.025 309.109 294.137 308.517 294.137C307.828 294.137 307.245 293.945 306.767 293.562C306.288 293.18 306.049 292.619 306.049 291.881ZM307.573 291.771C307.573 292.15 307.683 292.451 307.901 292.674C308.12 292.893 308.464 293.002 308.934 293.002C309.408 293.002 309.827 292.842 310.191 292.523C310.556 292.2 310.738 291.847 310.738 291.464V290.548H309.371C308.774 290.548 308.325 290.657 308.024 290.876C307.724 291.095 307.573 291.393 307.573 291.771ZM313.227 287.943V286.802H317.438V287.943H313.227ZM314.443 292.1V287.451V287.246V285.052H315.961V292.086C315.961 292.405 316.025 292.633 316.152 292.77C316.28 292.902 316.469 292.968 316.72 292.968C316.843 292.968 316.961 292.954 317.075 292.927C317.194 292.899 317.312 292.863 317.431 292.817V294C317.317 294.055 317.164 294.103 316.973 294.144C316.781 294.185 316.572 294.205 316.344 294.205C315.765 294.205 315.302 294.036 314.956 293.699C314.614 293.357 314.443 292.824 314.443 292.1ZM318.319 290.507V290.288C318.319 289.194 318.629 288.306 319.249 287.622C319.869 286.938 320.68 286.597 321.683 286.597C322.685 286.597 323.462 286.918 324.014 287.561C324.565 288.199 324.841 289.067 324.841 290.165V290.76H319.304V289.659H323.323V289.502C323.323 289.023 323.184 288.618 322.906 288.285C322.628 287.948 322.232 287.779 321.717 287.779C321.097 287.779 320.632 288.014 320.322 288.483C320.012 288.948 319.857 289.538 319.857 290.254V290.548C319.857 291.254 320.021 291.842 320.35 292.312C320.682 292.776 321.186 293.009 321.86 293.009C322.293 293.009 322.665 292.911 322.975 292.715C323.289 292.519 323.544 292.289 323.74 292.024L324.766 292.77C324.538 293.143 324.173 293.476 323.672 293.768C323.175 294.059 322.576 294.205 321.874 294.205C320.739 294.205 319.862 293.863 319.242 293.18C318.627 292.496 318.319 291.605 318.319 290.507Z" fill="white"/>
<path d="M27.8047 358V340.938H30.5352L37.5078 352.598C37.6484 352.84 37.7773 353.078 37.8945 353.312C38.0195 353.547 38.125 353.773 38.2109 353.992H38.293C38.2852 353.742 38.2773 353.48 38.2695 353.207C38.2695 352.926 38.2695 352.66 38.2695 352.41V340.938H40.6484V358H37.9062L30.9336 346.34C30.793 346.105 30.6641 345.871 30.5469 345.637C30.4375 345.395 30.3359 345.164 30.2422 344.945H30.1602C30.168 345.195 30.1719 345.465 30.1719 345.754C30.1797 346.035 30.1836 346.301 30.1836 346.551V358H27.8047ZM44.2578 358V340.938H46.8477V348.145H54.6289V340.938H57.2188V358H54.6289V350.242H46.8477V358H44.2578ZM59.9844 353.312V352.973H62.5742V353.277C62.5742 354.27 62.8867 355.016 63.5117 355.516C64.1445 356.008 65.0234 356.254 66.1484 356.254C67.2734 356.254 68.1328 356.008 68.7266 355.516C69.3281 355.023 69.6289 354.375 69.6289 353.57C69.6289 352.812 69.3438 352.215 68.7734 351.777C68.2031 351.332 67.082 350.859 65.4102 350.359C63.6289 349.836 62.332 349.203 61.5195 348.461C60.707 347.711 60.3008 346.66 60.3008 345.309C60.3008 343.926 60.8125 342.797 61.8359 341.922C62.8594 341.047 64.2617 340.609 66.043 340.609C67.8164 340.609 69.2305 341.062 70.2852 341.969C71.3477 342.867 71.8789 344.051 71.8789 345.52V345.812H69.3125V345.555C69.3125 344.688 69.0391 343.996 68.4922 343.48C67.9453 342.957 67.1328 342.695 66.0547 342.695C64.9609 342.695 64.1562 342.918 63.6406 343.363C63.1328 343.809 62.8789 344.41 62.8789 345.168C62.8789 345.879 63.1484 346.438 63.6875 346.844C64.2344 347.242 65.3516 347.691 67.0391 348.191C68.7969 348.707 70.0977 349.359 70.9414 350.148C71.7852 350.938 72.207 352.043 72.207 353.465C72.207 354.934 71.6602 356.113 70.5664 357.004C69.4727 357.887 68.0039 358.328 66.1602 358.328C64.3086 358.328 62.8164 357.891 61.6836 357.016C60.5508 356.141 59.9844 354.906 59.9844 353.312ZM80.4688 358V340.938H83.0586V348.145H90.8398V340.938H93.4297V358H90.8398V350.242H83.0586V358H80.4688ZM97.0391 358V340.938H102.676C104.488 340.938 105.887 341.398 106.871 342.32C107.863 343.242 108.359 344.484 108.359 346.047C108.359 347.617 107.863 348.879 106.871 349.832C105.879 350.777 104.48 351.25 102.676 351.25H99.6289V358H97.0391ZM99.6289 349.246H102.57C103.758 349.246 104.586 348.945 105.055 348.344C105.523 347.742 105.762 346.984 105.77 346.07C105.77 345.164 105.531 344.422 105.055 343.844C104.586 343.266 103.758 342.973 102.57 342.965H99.6289V349.246ZM106.297 358L102.254 350.16L104.867 349.844L109.191 358H106.297ZM109.004 343.023V340.938H122.023V343.023H116.82V358H114.207V343.023H109.004ZM129.195 358V340.938H134.996C136.84 340.938 138.254 341.414 139.238 342.367C140.223 343.32 140.715 344.605 140.715 346.223C140.715 347.832 140.223 349.121 139.238 350.09C138.262 351.059 136.844 351.543 134.984 351.543H131.785V358H129.195ZM131.785 349.504H134.82C136.047 349.504 136.902 349.195 137.387 348.578C137.871 347.953 138.113 347.172 138.113 346.234C138.113 345.297 137.871 344.523 137.387 343.914C136.902 343.297 136.047 342.988 134.82 342.988H131.785V349.504ZM142.836 358V346.023H145.191L145.262 347.523H145.32C145.609 347.031 145.996 346.605 146.48 346.246C146.973 345.887 147.547 345.707 148.203 345.707C148.375 345.707 148.551 345.727 148.73 345.766C148.918 345.797 149.051 345.828 149.129 345.859V348.074C148.98 348.043 148.82 348.02 148.648 348.004C148.477 347.98 148.289 347.969 148.086 347.969C147.461 347.969 146.91 348.145 146.434 348.496C145.957 348.848 145.602 349.293 145.367 349.832V358H142.836ZM150.031 352.199V351.824C150.031 349.996 150.547 348.52 151.578 347.395C152.609 346.262 153.961 345.695 155.633 345.695C157.305 345.695 158.598 346.227 159.512 347.289C160.426 348.344 160.883 349.789 160.883 351.625V352.562H151.602V350.793H158.375V350.559C158.375 349.762 158.148 349.078 157.695 348.508C157.242 347.93 156.566 347.641 155.668 347.641C154.637 347.641 153.859 348.027 153.336 348.801C152.82 349.566 152.562 350.547 152.562 351.742V352.246C152.562 353.441 152.84 354.43 153.395 355.211C153.949 355.984 154.785 356.371 155.902 356.371C156.621 356.371 157.238 356.211 157.754 355.891C158.277 355.562 158.699 355.172 159.02 354.719L160.754 355.902C160.387 356.543 159.789 357.109 158.961 357.602C158.133 358.086 157.117 358.328 155.914 358.328C154.039 358.328 152.59 357.766 151.566 356.641C150.543 355.508 150.031 354.027 150.031 352.199ZM162.535 354.355L164.996 354.367V354.496C164.996 355.168 165.23 355.664 165.699 355.984C166.168 356.297 166.793 356.453 167.574 356.453C168.363 356.453 168.973 356.305 169.402 356.008C169.84 355.703 170.059 355.297 170.059 354.789C170.059 354.281 169.863 353.898 169.473 353.641C169.082 353.375 168.25 353.098 166.977 352.809C165.641 352.504 164.617 352.07 163.906 351.508C163.203 350.945 162.852 350.172 162.852 349.188C162.852 348.141 163.273 347.297 164.117 346.656C164.961 346.016 166.098 345.695 167.527 345.695C168.957 345.695 170.102 346.023 170.961 346.68C171.828 347.328 172.262 348.223 172.262 349.363V349.48H169.801V349.328C169.801 348.758 169.613 348.324 169.238 348.027C168.863 347.723 168.289 347.57 167.516 347.57C166.758 347.57 166.203 347.707 165.852 347.98C165.5 348.246 165.324 348.602 165.324 349.047C165.324 349.477 165.531 349.816 165.945 350.066C166.359 350.316 167.199 350.586 168.465 350.875C169.801 351.18 170.816 351.617 171.512 352.188C172.207 352.75 172.555 353.555 172.555 354.602C172.555 355.727 172.137 356.629 171.301 357.309C170.465 357.988 169.227 358.328 167.586 358.328C165.953 358.328 164.703 357.984 163.836 357.297C162.977 356.609 162.547 355.668 162.547 354.473L162.535 354.355ZM174.312 352.199V351.824C174.312 349.973 174.824 348.488 175.848 347.371C176.871 346.254 178.258 345.695 180.008 345.695C181.664 345.695 182.922 346.121 183.781 346.973C184.641 347.816 185.078 348.82 185.094 349.984L185.105 350.113H182.656V350.008C182.656 349.352 182.441 348.797 182.012 348.344C181.582 347.891 180.918 347.664 180.02 347.664C178.973 347.664 178.188 348.043 177.664 348.801C177.141 349.559 176.879 350.543 176.879 351.754V352.258C176.879 353.445 177.137 354.426 177.652 355.199C178.168 355.973 178.953 356.359 180.008 356.359C180.93 356.359 181.602 356.129 182.023 355.668C182.445 355.207 182.66 354.648 182.668 353.992V353.887H185.105V354.004C185.105 355.16 184.668 356.172 183.793 357.039C182.918 357.898 181.656 358.328 180.008 358.328C178.258 358.328 176.871 357.77 175.848 356.652C174.824 355.527 174.312 354.043 174.312 352.199ZM187.367 358V346.023H189.723L189.793 347.523H189.852C190.141 347.031 190.527 346.605 191.012 346.246C191.504 345.887 192.078 345.707 192.734 345.707C192.906 345.707 193.082 345.727 193.262 345.766C193.449 345.797 193.582 345.828 193.66 345.859V348.074C193.512 348.043 193.352 348.02 193.18 348.004C193.008 347.98 192.82 347.969 192.617 347.969C191.992 347.969 191.441 348.145 190.965 348.496C190.488 348.848 190.133 349.293 189.898 349.832V358H187.367ZM195.582 358V346.023H198.102V358H195.582ZM195.312 342.32C195.312 341.914 195.441 341.574 195.699 341.301C195.965 341.02 196.344 340.879 196.836 340.879C197.328 340.879 197.707 341.016 197.973 341.289C198.238 341.562 198.371 341.906 198.371 342.32C198.371 342.727 198.238 343.07 197.973 343.352C197.707 343.625 197.328 343.762 196.836 343.762C196.344 343.762 195.965 343.625 195.699 343.352C195.441 343.07 195.312 342.727 195.312 342.32ZM201.312 362.934V346.023H203.645L203.715 347.547H203.773C204.062 347.055 204.523 346.637 205.156 346.293C205.797 345.949 206.527 345.777 207.348 345.777C208.871 345.777 210.086 346.336 210.992 347.453C211.906 348.562 212.363 350.016 212.363 351.812V352.188C212.363 353.977 211.91 355.434 211.004 356.559C210.098 357.676 208.887 358.234 207.371 358.234C206.551 358.234 205.84 358.09 205.238 357.801C204.645 357.512 204.172 357.121 203.82 356.629V362.934H201.312ZM203.82 354.32C204.039 354.828 204.398 355.277 204.898 355.668C205.406 356.059 206.016 356.254 206.727 356.254C207.781 356.254 208.555 355.879 209.047 355.129C209.547 354.379 209.797 353.418 209.797 352.246V351.754C209.797 350.582 209.547 349.625 209.047 348.883C208.555 348.141 207.781 347.77 206.727 347.77C206.008 347.77 205.398 347.965 204.898 348.355C204.406 348.738 204.047 349.184 203.82 349.691V354.32ZM213.254 347.934V346.023H220.332V347.934H213.254ZM215.281 354.777V346.996L215.293 346.703V342.801H217.789V354.684C217.789 355.301 217.898 355.723 218.117 355.949C218.336 356.176 218.668 356.289 219.113 356.289C219.316 356.289 219.516 356.27 219.711 356.23C219.906 356.191 220.102 356.133 220.297 356.055V358C220.102 358.086 219.844 358.16 219.523 358.223C219.203 358.293 218.844 358.328 218.445 358.328C217.484 358.328 216.715 358.047 216.137 357.484C215.566 356.922 215.281 356.02 215.281 354.777ZM222.465 358V346.023H224.984V358H222.465ZM222.195 342.32C222.195 341.914 222.324 341.574 222.582 341.301C222.848 341.02 223.227 340.879 223.719 340.879C224.211 340.879 224.59 341.016 224.855 341.289C225.121 341.562 225.254 341.906 225.254 342.32C225.254 342.727 225.121 343.07 224.855 343.352C224.59 343.625 224.211 343.762 223.719 343.762C223.227 343.762 222.848 343.625 222.582 343.352C222.324 343.07 222.195 342.727 222.195 342.32ZM227.492 352.199V351.824C227.492 349.988 228.023 348.508 229.086 347.383C230.148 346.258 231.559 345.695 233.316 345.695C235.074 345.695 236.484 346.258 237.547 347.383C238.609 348.508 239.141 349.988 239.141 351.824V352.199C239.141 354.027 238.609 355.508 237.547 356.641C236.484 357.766 235.074 358.328 233.316 358.328C231.559 358.328 230.148 357.766 229.086 356.641C228.023 355.508 227.492 354.027 227.492 352.199ZM230.059 351.766V352.258C230.059 353.453 230.336 354.434 230.891 355.199C231.445 355.965 232.254 356.348 233.316 356.348C234.387 356.348 235.195 355.965 235.742 355.199C236.297 354.434 236.574 353.449 236.574 352.246V351.766C236.574 350.562 236.297 349.582 235.742 348.824C235.188 348.059 234.379 347.676 233.316 347.676C232.254 347.676 231.445 348.059 230.891 348.824C230.336 349.582 230.059 350.562 230.059 351.766ZM241.578 358V346.023H243.922L243.992 347.547H244.051C244.434 347 244.941 346.57 245.574 346.258C246.207 345.938 246.914 345.777 247.695 345.777C248.898 345.777 249.863 346.121 250.59 346.809C251.324 347.496 251.691 348.656 251.691 350.289V358H249.172V350.324C249.172 349.418 248.973 348.773 248.574 348.391C248.176 348.008 247.613 347.816 246.887 347.816C246.27 347.816 245.715 347.988 245.223 348.332C244.738 348.676 244.363 349.129 244.098 349.691V358H241.578ZM27.8047 394V376.938H33.6055C35.4492 376.938 36.8633 377.414 37.8477 378.367C38.832 379.32 39.3242 380.605 39.3242 382.223C39.3242 383.832 38.832 385.121 37.8477 386.09C36.8711 387.059 35.4531 387.543 33.5938 387.543H30.3945V394H27.8047ZM30.3945 385.504H33.4297C34.6562 385.504 35.5117 385.195 35.9961 384.578C36.4805 383.953 36.7227 383.172 36.7227 382.234C36.7227 381.297 36.4805 380.523 35.9961 379.914C35.5117 379.297 34.6562 378.988 33.4297 378.988H30.3945V385.504ZM41.4453 394V382.023H43.8008L43.8711 383.523H43.9297C44.2188 383.031 44.6055 382.605 45.0898 382.246C45.582 381.887 46.1562 381.707 46.8125 381.707C46.9844 381.707 47.1602 381.727 47.3398 381.766C47.5273 381.797 47.6602 381.828 47.7383 381.859V384.074C47.5898 384.043 47.4297 384.02 47.2578 384.004C47.0859 383.98 46.8984 383.969 46.6953 383.969C46.0703 383.969 45.5195 384.145 45.043 384.496C44.5664 384.848 44.2109 385.293 43.9766 385.832V394H41.4453ZM48.6406 388.199V387.824C48.6406 385.996 49.1562 384.52 50.1875 383.395C51.2188 382.262 52.5703 381.695 54.2422 381.695C55.9141 381.695 57.207 382.227 58.1211 383.289C59.0352 384.344 59.4922 385.789 59.4922 387.625V388.562H50.2109V386.793H56.9844V386.559C56.9844 385.762 56.7578 385.078 56.3047 384.508C55.8516 383.93 55.1758 383.641 54.2773 383.641C53.2461 383.641 52.4688 384.027 51.9453 384.801C51.4297 385.566 51.1719 386.547 51.1719 387.742V388.246C51.1719 389.441 51.4492 390.43 52.0039 391.211C52.5586 391.984 53.3945 392.371 54.5117 392.371C55.2305 392.371 55.8477 392.211 56.3633 391.891C56.8867 391.562 57.3086 391.172 57.6289 390.719L59.3633 391.902C58.9961 392.543 58.3984 393.109 57.5703 393.602C56.7422 394.086 55.7266 394.328 54.5234 394.328C52.6484 394.328 51.1992 393.766 50.1758 392.641C49.1523 391.508 48.6406 390.027 48.6406 388.199ZM61.8359 398.934V382.023H64.168L64.2383 383.547H64.2969C64.5859 383.055 65.0469 382.637 65.6797 382.293C66.3203 381.949 67.0508 381.777 67.8711 381.777C69.3945 381.777 70.6094 382.336 71.5156 383.453C72.4297 384.562 72.8867 386.016 72.8867 387.812V388.188C72.8867 389.977 72.4336 391.434 71.5273 392.559C70.6211 393.676 69.4102 394.234 67.8945 394.234C67.0742 394.234 66.3633 394.09 65.7617 393.801C65.168 393.512 64.6953 393.121 64.3438 392.629V398.934H61.8359ZM64.3438 390.32C64.5625 390.828 64.9219 391.277 65.4219 391.668C65.9297 392.059 66.5391 392.254 67.25 392.254C68.3047 392.254 69.0781 391.879 69.5703 391.129C70.0703 390.379 70.3203 389.418 70.3203 388.246V387.754C70.3203 386.582 70.0703 385.625 69.5703 384.883C69.0781 384.141 68.3047 383.77 67.25 383.77C66.5312 383.77 65.9219 383.965 65.4219 384.355C64.9297 384.738 64.5703 385.184 64.3438 385.691V390.32ZM74.6797 390.496C74.6797 389.262 75.1641 388.305 76.1328 387.625C77.1094 386.945 78.3594 386.605 79.8828 386.605H82.5312V385.762C82.5312 385.09 82.3555 384.555 82.0039 384.156C81.6602 383.75 81.0664 383.547 80.2227 383.547C79.3867 383.547 78.7812 383.715 78.4062 384.051C78.0312 384.387 77.8438 384.801 77.8438 385.293V385.434H75.3711V385.27C75.3711 384.277 75.8164 383.434 76.707 382.738C77.6055 382.043 78.8086 381.695 80.3164 381.695C81.8164 381.695 82.9805 382.031 83.8086 382.703C84.6367 383.367 85.0508 384.395 85.0508 385.785V391.223C85.0508 391.723 85.0898 392.199 85.168 392.652C85.2461 393.098 85.3594 393.484 85.5078 393.812V394H83.0586C82.9492 393.805 82.8516 393.559 82.7656 393.262C82.6875 392.957 82.6367 392.652 82.6133 392.348C82.3398 392.832 81.8789 393.266 81.2305 393.648C80.5898 394.023 79.7695 394.211 78.7695 394.211C77.6055 394.211 76.6328 393.898 75.8516 393.273C75.0703 392.641 74.6797 391.715 74.6797 390.496ZM77.1992 390.332C77.1992 390.973 77.3828 391.473 77.75 391.832C78.125 392.191 78.6992 392.371 79.4727 392.371C80.2695 392.371 80.9766 392.102 81.5938 391.562C82.2188 391.023 82.5312 390.43 82.5312 389.781V388.258H80.2578C79.2344 388.258 78.4688 388.441 77.9609 388.809C77.4531 389.176 77.1992 389.684 77.1992 390.332ZM87.0898 398.875V396.895C87.3008 396.957 87.5273 397.004 87.7695 397.035C88.0117 397.074 88.2461 397.094 88.4727 397.094C89.0117 397.094 89.4766 396.883 89.8672 396.461C90.2656 396.047 90.6641 395.219 91.0625 393.977L91.0273 393.965L86.4805 382.023H88.9766L91.7188 389.699C91.8281 389.996 91.918 390.27 91.9883 390.52C92.0586 390.762 92.125 391 92.1875 391.234H92.2461C92.3086 391 92.3789 390.762 92.457 390.52C92.5352 390.27 92.625 389.992 92.7266 389.688L95.3633 382.023H97.6953L92.7617 395.488C92.3242 396.684 91.7773 397.586 91.1211 398.195C90.4727 398.805 89.6562 399.109 88.6719 399.109C88.3359 399.109 88.043 399.09 87.793 399.051C87.543 399.012 87.3086 398.953 87.0898 398.875ZM99.2422 394V382.023H101.586L101.656 383.57H101.715C102.121 383.016 102.629 382.582 103.238 382.27C103.848 381.949 104.52 381.789 105.254 381.789C106.074 381.789 106.781 381.957 107.375 382.293C107.977 382.629 108.418 383.148 108.699 383.852H108.746C109.207 383.148 109.762 382.629 110.41 382.293C111.066 381.957 111.801 381.789 112.613 381.789C113.816 381.789 114.77 382.141 115.473 382.844C116.184 383.539 116.539 384.703 116.539 386.336V394H114.02V386.324C114.02 385.426 113.828 384.785 113.445 384.402C113.07 384.012 112.535 383.816 111.84 383.816C111.223 383.816 110.688 383.988 110.234 384.332C109.781 384.676 109.418 385.129 109.145 385.691V394H106.625V386.336C106.625 385.43 106.434 384.785 106.051 384.402C105.676 384.012 105.137 383.816 104.434 383.816C103.824 383.816 103.293 383.988 102.84 384.332C102.387 384.676 102.027 385.129 101.762 385.691V394H99.2422ZM118.859 388.199V387.824C118.859 385.996 119.375 384.52 120.406 383.395C121.438 382.262 122.789 381.695 124.461 381.695C126.133 381.695 127.426 382.227 128.34 383.289C129.254 384.344 129.711 385.789 129.711 387.625V388.562H120.43V386.793H127.203V386.559C127.203 385.762 126.977 385.078 126.523 384.508C126.07 383.93 125.395 383.641 124.496 383.641C123.465 383.641 122.688 384.027 122.164 384.801C121.648 385.566 121.391 386.547 121.391 387.742V388.246C121.391 389.441 121.668 390.43 122.223 391.211C122.777 391.984 123.613 392.371 124.73 392.371C125.449 392.371 126.066 392.211 126.582 391.891C127.105 391.562 127.527 391.172 127.848 390.719L129.582 391.902C129.215 392.543 128.617 393.109 127.789 393.602C126.961 394.086 125.945 394.328 124.742 394.328C122.867 394.328 121.418 393.766 120.395 392.641C119.371 391.508 118.859 390.027 118.859 388.199ZM132.055 394V382.023H134.398L134.469 383.547H134.527C134.91 383 135.418 382.57 136.051 382.258C136.684 381.938 137.391 381.777 138.172 381.777C139.375 381.777 140.34 382.121 141.066 382.809C141.801 383.496 142.168 384.656 142.168 386.289V394H139.648V386.324C139.648 385.418 139.449 384.773 139.051 384.391C138.652 384.008 138.09 383.816 137.363 383.816C136.746 383.816 136.191 383.988 135.699 384.332C135.215 384.676 134.84 385.129 134.574 385.691V394H132.055ZM143.645 383.934V382.023H150.723V383.934H143.645ZM145.672 390.777V382.996L145.684 382.703V378.801H148.18V390.684C148.18 391.301 148.289 391.723 148.508 391.949C148.727 392.176 149.059 392.289 149.504 392.289C149.707 392.289 149.906 392.27 150.102 392.23C150.297 392.191 150.492 392.133 150.688 392.055V394C150.492 394.086 150.234 394.16 149.914 394.223C149.594 394.293 149.234 394.328 148.836 394.328C147.875 394.328 147.105 394.047 146.527 393.484C145.957 392.922 145.672 392.02 145.672 390.777ZM157.977 385.984V384.953C157.977 382.227 158.637 380.156 159.957 378.742C161.285 377.32 162.973 376.609 165.02 376.609C167.027 376.609 168.602 377.152 169.742 378.238C170.883 379.316 171.453 380.688 171.453 382.352V382.621H168.852V382.316C168.852 381.215 168.531 380.34 167.891 379.691C167.258 379.035 166.297 378.707 165.008 378.707C163.703 378.707 162.648 379.199 161.844 380.184C161.039 381.16 160.637 382.684 160.637 384.754V386.184C160.637 388.129 161.039 389.625 161.844 390.672C162.648 391.711 163.711 392.23 165.031 392.23C166.258 392.23 167.184 391.898 167.809 391.234C168.434 390.57 168.781 389.691 168.852 388.598V388.328H171.453L171.441 388.633C171.34 390.258 170.746 391.613 169.66 392.699C168.582 393.777 167.031 394.316 165.008 394.316C162.93 394.316 161.238 393.605 159.934 392.184C158.629 390.754 157.977 388.688 157.977 385.984ZM173.141 388.199V387.824C173.141 385.996 173.656 384.52 174.688 383.395C175.719 382.262 177.07 381.695 178.742 381.695C180.414 381.695 181.707 382.227 182.621 383.289C183.535 384.344 183.992 385.789 183.992 387.625V388.562H174.711V386.793H181.484V386.559C181.484 385.762 181.258 385.078 180.805 384.508C180.352 383.93 179.676 383.641 178.777 383.641C177.746 383.641 176.969 384.027 176.445 384.801C175.93 385.566 175.672 386.547 175.672 387.742V388.246C175.672 389.441 175.949 390.43 176.504 391.211C177.059 391.984 177.895 392.371 179.012 392.371C179.73 392.371 180.348 392.211 180.863 391.891C181.387 391.562 181.809 391.172 182.129 390.719L183.863 391.902C183.496 392.543 182.898 393.109 182.07 393.602C181.242 394.086 180.227 394.328 179.023 394.328C177.148 394.328 175.699 393.766 174.676 392.641C173.652 391.508 173.141 390.027 173.141 388.199ZM186.336 394V382.023H188.691L188.762 383.523H188.82C189.109 383.031 189.496 382.605 189.98 382.246C190.473 381.887 191.047 381.707 191.703 381.707C191.875 381.707 192.051 381.727 192.23 381.766C192.418 381.797 192.551 381.828 192.629 381.859V384.074C192.48 384.043 192.32 384.02 192.148 384.004C191.977 383.98 191.789 383.969 191.586 383.969C190.961 383.969 190.41 384.145 189.934 384.496C189.457 384.848 189.102 385.293 188.867 385.832V394H186.336ZM193.496 383.934V382.023H200.574V383.934H193.496ZM195.523 390.777V382.996L195.535 382.703V378.801H198.031V390.684C198.031 391.301 198.141 391.723 198.359 391.949C198.578 392.176 198.91 392.289 199.355 392.289C199.559 392.289 199.758 392.27 199.953 392.23C200.148 392.191 200.344 392.133 200.539 392.055V394C200.344 394.086 200.086 394.16 199.766 394.223C199.445 394.293 199.086 394.328 198.688 394.328C197.727 394.328 196.957 394.047 196.379 393.484C195.809 392.922 195.523 392.02 195.523 390.777ZM202.707 394V382.023H205.227V394H202.707ZM202.438 378.32C202.438 377.914 202.566 377.574 202.824 377.301C203.09 377.02 203.469 376.879 203.961 376.879C204.453 376.879 204.832 377.016 205.098 377.289C205.363 377.562 205.496 377.906 205.496 378.32C205.496 378.727 205.363 379.07 205.098 379.352C204.832 379.625 204.453 379.762 203.961 379.762C203.469 379.762 203.09 379.625 202.824 379.352C202.566 379.07 202.438 378.727 202.438 378.32ZM208.965 394V380.359C208.965 378.922 209.352 377.836 210.125 377.102C210.898 376.359 211.934 375.988 213.23 375.988C213.496 375.988 213.758 376.004 214.016 376.035C214.273 376.066 214.52 376.113 214.754 376.176L214.637 378.133C214.473 378.102 214.297 378.074 214.109 378.051C213.922 378.02 213.73 378.004 213.535 378.004C212.879 378.004 212.371 378.203 212.012 378.602C211.652 378.992 211.473 379.602 211.473 380.43V382.762V382.984V394H208.965ZM207.09 383.934V382.023H209.867H210.312H213.945V383.934H207.09ZM215.492 394V382.023H218.012V394H215.492ZM215.223 378.32C215.223 377.914 215.352 377.574 215.609 377.301C215.875 377.02 216.254 376.879 216.746 376.879C217.238 376.879 217.617 377.016 217.883 377.289C218.148 377.562 218.281 377.906 218.281 378.32C218.281 378.727 218.148 379.07 217.883 379.352C217.617 379.625 217.238 379.762 216.746 379.762C216.254 379.762 215.875 379.625 215.609 379.352C215.352 379.07 215.223 378.727 215.223 378.32ZM220.531 388.199V387.824C220.531 385.973 221.043 384.488 222.066 383.371C223.09 382.254 224.477 381.695 226.227 381.695C227.883 381.695 229.141 382.121 230 382.973C230.859 383.816 231.297 384.82 231.312 385.984L231.324 386.113H228.875V386.008C228.875 385.352 228.66 384.797 228.23 384.344C227.801 383.891 227.137 383.664 226.238 383.664C225.191 383.664 224.406 384.043 223.883 384.801C223.359 385.559 223.098 386.543 223.098 387.754V388.258C223.098 389.445 223.355 390.426 223.871 391.199C224.387 391.973 225.172 392.359 226.227 392.359C227.148 392.359 227.82 392.129 228.242 391.668C228.664 391.207 228.879 390.648 228.887 389.992V389.887H231.324V390.004C231.324 391.16 230.887 392.172 230.012 393.039C229.137 393.898 227.875 394.328 226.227 394.328C224.477 394.328 223.09 393.77 222.066 392.652C221.043 391.527 220.531 390.043 220.531 388.199ZM232.93 390.496C232.93 389.262 233.414 388.305 234.383 387.625C235.359 386.945 236.609 386.605 238.133 386.605H240.781V385.762C240.781 385.09 240.605 384.555 240.254 384.156C239.91 383.75 239.316 383.547 238.473 383.547C237.637 383.547 237.031 383.715 236.656 384.051C236.281 384.387 236.094 384.801 236.094 385.293V385.434H233.621V385.27C233.621 384.277 234.066 383.434 234.957 382.738C235.855 382.043 237.059 381.695 238.566 381.695C240.066 381.695 241.23 382.031 242.059 382.703C242.887 383.367 243.301 384.395 243.301 385.785V391.223C243.301 391.723 243.34 392.199 243.418 392.652C243.496 393.098 243.609 393.484 243.758 393.812V394H241.309C241.199 393.805 241.102 393.559 241.016 393.262C240.938 392.957 240.887 392.652 240.863 392.348C240.59 392.832 240.129 393.266 239.48 393.648C238.84 394.023 238.02 394.211 237.02 394.211C235.855 394.211 234.883 393.898 234.102 393.273C233.32 392.641 232.93 391.715 232.93 390.496ZM235.449 390.332C235.449 390.973 235.633 391.473 236 391.832C236.375 392.191 236.949 392.371 237.723 392.371C238.52 392.371 239.227 392.102 239.844 391.562C240.469 391.023 240.781 390.43 240.781 389.781V388.258H238.508C237.484 388.258 236.719 388.441 236.211 388.809C235.703 389.176 235.449 389.684 235.449 390.332ZM244.871 383.934V382.023H251.949V383.934H244.871ZM246.898 390.777V382.996L246.91 382.703V378.801H249.406V390.684C249.406 391.301 249.516 391.723 249.734 391.949C249.953 392.176 250.285 392.289 250.73 392.289C250.934 392.289 251.133 392.27 251.328 392.23C251.523 392.191 251.719 392.133 251.914 392.055V394C251.719 394.086 251.461 394.16 251.141 394.223C250.82 394.293 250.461 394.328 250.062 394.328C249.102 394.328 248.332 394.047 247.754 393.484C247.184 392.922 246.898 392.02 246.898 390.777ZM253.297 388.199V387.824C253.297 385.996 253.812 384.52 254.844 383.395C255.875 382.262 257.227 381.695 258.898 381.695C260.57 381.695 261.863 382.227 262.777 383.289C263.691 384.344 264.148 385.789 264.148 387.625V388.562H254.867V386.793H261.641V386.559C261.641 385.762 261.414 385.078 260.961 384.508C260.508 383.93 259.832 383.641 258.934 383.641C257.902 383.641 257.125 384.027 256.602 384.801C256.086 385.566 255.828 386.547 255.828 387.742V388.246C255.828 389.441 256.105 390.43 256.66 391.211C257.215 391.984 258.051 392.371 259.168 392.371C259.887 392.371 260.504 392.211 261.02 391.891C261.543 391.562 261.965 391.172 262.285 390.719L264.02 391.902C263.652 392.543 263.055 393.109 262.227 393.602C261.398 394.086 260.383 394.328 259.18 394.328C257.305 394.328 255.855 393.766 254.832 392.641C253.809 391.508 253.297 390.027 253.297 388.199ZM33.6641 435.109C31.9922 434.398 30.5234 433.113 29.2578 431.254C28 429.395 27.3711 426.965 27.3711 423.965V423.848C27.3711 420.801 27.9922 418.363 29.2344 416.535C30.4844 414.707 31.9609 413.43 33.6641 412.703V414.836C32.7344 415.406 31.8828 416.391 31.1094 417.789C30.3438 419.18 29.9609 421.172 29.9609 423.766V424.047C29.9609 426.586 30.3398 428.566 31.0977 429.988C31.8633 431.41 32.7188 432.406 33.6641 432.977V435.109ZM36.0312 430V412.938H38.6211V420.145H46.4023V412.938H48.9922V430H46.4023V422.242H38.6211V430H36.0312ZM52.6016 430V412.938H58.2383C60.0508 412.938 61.4492 413.398 62.4336 414.32C63.4258 415.242 63.9219 416.484 63.9219 418.047C63.9219 419.617 63.4258 420.879 62.4336 421.832C61.4414 422.777 60.043 423.25 58.2383 423.25H55.1914V430H52.6016ZM55.1914 421.246H58.1328C59.3203 421.246 60.1484 420.945 60.6172 420.344C61.0859 419.742 61.3242 418.984 61.332 418.07C61.332 417.164 61.0938 416.422 60.6172 415.844C60.1484 415.266 59.3203 414.973 58.1328 414.965H55.1914V421.246ZM61.8594 430L57.8164 422.16L60.4297 421.844L64.7539 430H61.8594ZM64.5664 415.023V412.938H77.5859V415.023H72.3828V430H69.7695V415.023H64.5664ZM84.7578 430V412.938H90.5586C92.4023 412.938 93.8164 413.414 94.8008 414.367C95.7852 415.32 96.2773 416.605 96.2773 418.223C96.2773 419.832 95.7852 421.121 94.8008 422.09C93.8242 423.059 92.4062 423.543 90.5469 423.543H87.3477V430H84.7578ZM87.3477 421.504H90.3828C91.6094 421.504 92.4648 421.195 92.9492 420.578C93.4336 419.953 93.6758 419.172 93.6758 418.234C93.6758 417.297 93.4336 416.523 92.9492 415.914C92.4648 415.297 91.6094 414.988 90.3828 414.988H87.3477V421.504ZM98.6328 430V412.938H104.434C106.277 412.938 107.691 413.414 108.676 414.367C109.66 415.32 110.152 416.605 110.152 418.223C110.152 419.832 109.66 421.121 108.676 422.09C107.699 423.059 106.281 423.543 104.422 423.543H101.223V430H98.6328ZM101.223 421.504H104.258C105.484 421.504 106.34 421.195 106.824 420.578C107.309 419.953 107.551 419.172 107.551 418.234C107.551 417.297 107.309 416.523 106.824 415.914C106.34 415.297 105.484 414.988 104.258 414.988H101.223V421.504ZM111.945 421.984V420.953C111.945 418.227 112.605 416.156 113.926 414.742C115.254 413.32 116.941 412.609 118.988 412.609C120.996 412.609 122.57 413.152 123.711 414.238C124.852 415.316 125.422 416.688 125.422 418.352V418.621H122.82V418.316C122.82 417.215 122.5 416.34 121.859 415.691C121.227 415.035 120.266 414.707 118.977 414.707C117.672 414.707 116.617 415.199 115.812 416.184C115.008 417.16 114.605 418.684 114.605 420.754V422.184C114.605 424.129 115.008 425.625 115.812 426.672C116.617 427.711 117.68 428.23 119 428.23C120.227 428.23 121.152 427.898 121.777 427.234C122.402 426.57 122.75 425.691 122.82 424.598V424.328H125.422L125.41 424.633C125.309 426.258 124.715 427.613 123.629 428.699C122.551 429.777 121 430.316 118.977 430.316C116.898 430.316 115.207 429.605 113.902 428.184C112.598 426.754 111.945 424.688 111.945 421.984ZM126.676 435.109V432.977C127.613 432.422 128.465 431.43 129.23 430C129.996 428.57 130.379 426.586 130.379 424.047V423.766C130.379 421.172 129.992 419.18 129.219 417.789C128.453 416.391 127.605 415.406 126.676 414.836V412.703C128.34 413.422 129.805 414.691 131.07 416.512C132.344 418.332 132.98 420.777 132.98 423.848V423.965C132.98 426.965 132.348 429.395 131.082 431.254C129.824 433.113 128.355 434.398 126.676 435.109Z" fill="white"/>
<rect x="198" y="710" width="149" height="44" rx="20" fill="#4CDADB"/>
<path d="M227.938 727.047H229.627L232.197 734.211C232.247 734.357 232.288 734.487 232.32 734.601C232.357 734.71 232.393 734.835 232.43 734.977H232.491C232.528 734.835 232.564 734.71 232.601 734.601C232.637 734.487 232.68 734.357 232.73 734.211L235.335 727.047H236.894L233.182 737.055H231.657L227.938 727.047ZM237.851 737V729.802H239.382V737H237.851ZM237.687 727.689C237.687 727.443 237.766 727.236 237.926 727.067C238.085 726.899 238.315 726.814 238.616 726.814C238.912 726.814 239.14 726.899 239.3 727.067C239.459 727.236 239.539 727.443 239.539 727.689C239.539 727.931 239.459 728.136 239.3 728.305C239.14 728.473 238.912 728.558 238.616 728.558C238.315 728.558 238.085 728.473 237.926 728.305C237.766 728.136 237.687 727.931 237.687 727.689ZM240.954 733.507V733.288C240.954 732.194 241.264 731.306 241.884 730.622C242.504 729.938 243.315 729.597 244.317 729.597C245.32 729.597 246.097 729.918 246.648 730.561C247.2 731.199 247.476 732.067 247.476 733.165V733.76H241.938V732.659H245.958V732.502C245.958 732.023 245.819 731.618 245.541 731.285C245.263 730.948 244.867 730.779 244.352 730.779C243.732 730.779 243.267 731.014 242.957 731.483C242.647 731.948 242.492 732.538 242.492 733.254V733.548C242.492 734.254 242.656 734.842 242.984 735.312C243.317 735.776 243.821 736.009 244.495 736.009C244.928 736.009 245.299 735.911 245.609 735.715C245.924 735.519 246.179 735.289 246.375 735.024L247.4 735.77C247.173 736.143 246.808 736.476 246.307 736.768C245.81 737.059 245.211 737.205 244.509 737.205C243.374 737.205 242.497 736.863 241.877 736.18C241.262 735.496 240.954 734.605 240.954 733.507ZM248.125 729.802H249.629L250.866 734.3C250.916 734.482 250.955 734.637 250.982 734.765C251.014 734.888 251.046 735.04 251.078 735.223H251.119C251.151 735.04 251.181 734.888 251.208 734.765C251.235 734.637 251.279 734.482 251.338 734.3L252.773 729.802H254.141L255.624 734.3C255.688 734.482 255.733 734.637 255.761 734.765C255.793 734.888 255.825 735.04 255.856 735.223H255.897C255.929 735.04 255.959 734.888 255.986 734.765C256.014 734.637 256.05 734.482 256.096 734.3L257.306 729.802H258.673L256.472 737H255.166L253.696 732.557C253.642 732.379 253.589 732.199 253.539 732.017C253.493 731.834 253.45 731.654 253.409 731.477H253.368C253.327 731.654 253.282 731.834 253.231 732.017C253.186 732.199 253.136 732.379 253.081 732.557L251.639 737H250.326L248.125 729.802ZM263.267 737V729.802H264.798V737H263.267ZM263.103 727.689C263.103 727.443 263.182 727.236 263.342 727.067C263.501 726.899 263.731 726.814 264.032 726.814C264.328 726.814 264.556 726.899 264.716 727.067C264.875 727.236 264.955 727.443 264.955 727.689C264.955 727.931 264.875 728.136 264.716 728.305C264.556 728.473 264.328 728.558 264.032 728.558C263.731 728.558 263.501 728.473 263.342 728.305C263.182 728.136 263.103 727.931 263.103 727.689ZM266.787 737V729.802H268.195L268.25 730.684H268.284C268.521 730.374 268.826 730.125 269.2 729.938C269.574 729.752 269.986 729.658 270.438 729.658C271.167 729.658 271.752 729.868 272.194 730.287C272.636 730.702 272.857 731.406 272.857 732.399V737H271.333V732.372C271.333 731.839 271.215 731.461 270.978 731.237C270.745 731.009 270.41 730.896 269.973 730.896C269.608 730.896 269.28 730.996 268.988 731.196C268.697 731.397 268.471 731.663 268.312 731.996V737H266.787ZM279.885 737.055L277.472 727.047H279.044L280.664 734.19C280.696 734.345 280.719 734.471 280.732 734.566C280.751 734.658 280.769 734.781 280.787 734.936H280.855C280.869 734.781 280.883 734.658 280.896 734.566C280.915 734.471 280.942 734.345 280.979 734.19L282.756 727.047H284.417L286.242 734.19C286.283 734.345 286.311 734.471 286.324 734.566C286.338 734.658 286.354 734.781 286.372 734.936H286.434C286.452 734.781 286.47 734.658 286.488 734.566C286.507 734.471 286.532 734.345 286.563 734.19L288.122 727.047H289.599L287.199 737.055H285.579L283.733 729.904C283.692 729.745 283.658 729.599 283.631 729.467C283.604 729.33 283.581 729.187 283.562 729.036H283.508C283.485 729.187 283.46 729.33 283.433 729.467C283.41 729.599 283.378 729.745 283.337 729.904L281.491 737.055H279.885ZM290.248 734.881C290.248 734.124 290.544 733.546 291.137 733.145C291.729 732.739 292.479 732.534 293.386 732.529H294.938V732.071C294.938 731.675 294.835 731.354 294.63 731.107C294.425 730.857 294.072 730.731 293.57 730.731C293.064 730.731 292.702 730.834 292.483 731.039C292.269 731.244 292.162 731.486 292.162 731.764V731.825H290.651V731.764C290.651 731.167 290.92 730.656 291.458 730.232C292 729.809 292.72 729.597 293.618 729.597C294.516 729.597 295.213 729.802 295.71 730.212C296.211 730.622 296.462 731.242 296.462 732.071V735.366C296.462 735.662 296.485 735.943 296.53 736.207C296.58 736.467 296.649 736.695 296.735 736.891V737H295.245C295.186 736.891 295.131 736.747 295.081 736.569C295.031 736.387 294.999 736.209 294.985 736.036C294.83 736.323 294.562 736.578 294.179 736.802C293.796 737.025 293.308 737.137 292.716 737.137C292.028 737.137 291.444 736.945 290.966 736.562C290.487 736.18 290.248 735.619 290.248 734.881ZM291.772 734.771C291.772 735.15 291.882 735.451 292.101 735.674C292.319 735.893 292.663 736.002 293.133 736.002C293.607 736.002 294.026 735.842 294.391 735.523C294.755 735.2 294.938 734.847 294.938 734.464V733.548H293.57C292.973 733.548 292.524 733.657 292.224 733.876C291.923 734.095 291.772 734.393 291.772 734.771ZM298.438 737V726.514H299.962V737H298.438ZM301.992 737V726.514H303.517V737H301.992ZM305.089 733.507V733.288C305.089 732.194 305.399 731.306 306.019 730.622C306.638 729.938 307.45 729.597 308.452 729.597C309.455 729.597 310.232 729.918 310.783 730.561C311.335 731.199 311.61 732.067 311.61 733.165V733.76H306.073V732.659H310.093V732.502C310.093 732.023 309.954 731.618 309.676 731.285C309.398 730.948 309.001 730.779 308.486 730.779C307.867 730.779 307.402 731.014 307.092 731.483C306.782 731.948 306.627 732.538 306.627 733.254V733.548C306.627 734.254 306.791 734.842 307.119 735.312C307.452 735.776 307.955 736.009 308.63 736.009C309.063 736.009 309.434 735.911 309.744 735.715C310.059 735.519 310.314 735.289 310.51 735.024L311.535 735.77C311.307 736.143 310.943 736.476 310.441 736.768C309.945 737.059 309.345 737.205 308.644 737.205C307.509 737.205 306.632 736.863 306.012 736.18C305.396 735.496 305.089 734.605 305.089 733.507ZM312.109 730.943V729.802H316.32V730.943H312.109ZM313.326 735.1V730.451V730.246V728.052H314.844V735.086C314.844 735.405 314.908 735.633 315.035 735.77C315.163 735.902 315.352 735.968 315.603 735.968C315.726 735.968 315.844 735.954 315.958 735.927C316.076 735.899 316.195 735.863 316.313 735.817V737C316.2 737.055 316.047 737.103 315.855 737.144C315.664 737.185 315.454 737.205 315.227 737.205C314.648 737.205 314.185 737.036 313.839 736.699C313.497 736.357 313.326 735.824 313.326 735.1Z" fill="#1E1E1E"/>
<circle cx="180" cy="186" r="35" stroke="#4CDADB" stroke-opacity="0.5" stroke-width="2"/>
<path d="M172.8 196.008L162.792 186L159.384 189.384L172.8 202.8L201.6 174L198.216 170.616L172.8 196.008Z" fill="#4CDADB"/>
</g>
<defs>
<clipPath id="clip0_3_22">
<rect width="360" height="800" fill="white"/>
</clipPath>
<clipPath id="clip1_3_22">
<rect width="24" height="9" fill="white" transform="translate(29 284)"/>
</clipPath>
</defs>
</svg>
