<svg width="360" height="800" viewBox="0 0 360 800" fill="none" xmlns="http://www.w3.org/2000/svg">
<g clip-path="url(#clip0_6_202)">
<rect width="360" height="800" fill="black"/>
<path d="M172.624 177.313C174.799 174.888 176 171.755 176 168.51C176 165.265 174.799 162.133 172.624 159.707C172.445 159.502 172.227 159.335 171.982 159.214C171.738 159.093 171.471 159.022 171.198 159.004C170.925 158.987 170.652 159.023 170.393 159.111C170.135 159.199 169.896 159.337 169.692 159.517C169.488 159.697 169.322 159.916 169.203 160.16C169.085 160.404 169.017 160.67 169.003 160.94C168.989 161.211 169.029 161.482 169.121 161.737C169.214 161.992 169.356 162.226 169.54 162.426C171.043 164.103 171.873 166.267 171.873 168.51C171.873 170.753 171.043 172.918 169.54 174.594C169.177 175 168.991 175.532 169.023 176.074C169.055 176.616 169.303 177.123 169.712 177.483C170.121 177.844 170.658 178.028 171.205 177.996C171.751 177.965 172.262 177.719 172.626 177.313L172.624 177.313Z" fill="white"/>
<path d="M185 168.5C185.008 163.351 182.789 158.394 178.795 154.638C178.601 154.448 178.367 154.294 178.106 154.185C177.844 154.075 177.56 154.013 177.271 154.002C176.982 153.991 176.693 154.03 176.421 154.119C176.15 154.207 175.901 154.343 175.689 154.517C175.478 154.691 175.308 154.901 175.19 155.134C175.072 155.367 175.007 155.619 175.001 155.874C174.994 156.129 175.045 156.383 175.151 156.62C175.257 156.858 175.416 157.074 175.618 157.257C178.852 160.307 180.65 164.325 180.65 168.5C180.65 172.675 178.852 176.693 175.618 179.743C175.416 179.926 175.257 180.142 175.151 180.38C175.045 180.617 174.994 180.871 175.001 181.126C175.007 181.381 175.071 181.633 175.19 181.866C175.308 182.099 175.478 182.309 175.689 182.483C175.901 182.657 176.15 182.793 176.421 182.881C176.693 182.97 176.982 183.009 177.271 182.998C177.56 182.987 177.844 182.925 178.106 182.815C178.367 182.706 178.601 182.552 178.795 182.362C182.789 178.606 185.008 173.649 185 168.5Z" fill="white"/>
<path d="M185.524 187.343C190.339 182.024 193 175.145 193 168.017C193 160.889 190.339 154.01 185.524 148.691C185.35 148.492 185.138 148.328 184.9 148.21C184.662 148.092 184.402 148.022 184.136 148.004C183.869 147.987 183.602 148.022 183.35 148.107C183.098 148.193 182.866 148.327 182.667 148.503C182.468 148.678 182.307 148.891 182.193 149.128C182.078 149.366 182.014 149.624 182.002 149.886C181.99 150.149 182.032 150.411 182.124 150.658C182.217 150.904 182.359 151.13 182.541 151.322C186.7 155.917 188.998 161.859 188.998 168.017C188.998 174.174 186.7 180.117 182.541 184.712C182.187 185.102 182.005 185.615 182.035 186.137C182.064 186.659 182.303 187.149 182.699 187.498C183.095 187.847 183.615 188.026 184.145 187.997C184.675 187.968 185.172 187.732 185.526 187.342L185.524 187.343Z" fill="white"/>
<path d="M18.4066 16.0909V27H16.4304V18.0138H16.3665L13.815 19.6438V17.8327L16.5263 16.0909H18.4066ZM20.6765 27V25.5724L24.4638 21.8597C24.826 21.4939 25.1278 21.169 25.3693 20.8849C25.6108 20.6008 25.7919 20.3256 25.9126 20.0593C26.0334 19.7929 26.0938 19.5088 26.0938 19.207C26.0938 18.8625 26.0156 18.5678 25.8594 18.3228C25.7031 18.0742 25.4883 17.8824 25.2148 17.7475C24.9414 17.6125 24.6307 17.5451 24.2827 17.5451C23.924 17.5451 23.6097 17.6196 23.3398 17.7688C23.07 17.9144 22.8604 18.1221 22.7113 18.392C22.5657 18.6619 22.4929 18.9833 22.4929 19.3561H20.6126C20.6126 18.6637 20.7706 18.0618 21.0866 17.5504C21.4027 17.039 21.8377 16.6431 22.3917 16.3625C22.9492 16.082 23.5884 15.9417 24.3093 15.9417C25.0408 15.9417 25.6836 16.0784 26.2376 16.3519C26.7915 16.6253 27.2212 17 27.5266 17.4758C27.8356 17.9517 27.9901 18.495 27.9901 19.1058C27.9901 19.5142 27.9119 19.9155 27.7557 20.3096C27.5994 20.7038 27.3242 21.1406 26.93 21.62C26.5394 22.0994 25.9908 22.68 25.2841 23.3618L23.4038 25.2741V25.3487H28.1552V27H20.6765ZM30.7021 25.6896C30.3789 25.6896 30.1019 25.576 29.8711 25.3487C29.6403 25.1179 29.5266 24.8409 29.5302 24.5177C29.5266 24.1981 29.6403 23.9247 29.8711 23.6974C30.1019 23.4701 30.3789 23.3565 30.7021 23.3565C31.0146 23.3565 31.2862 23.4701 31.517 23.6974C31.7514 23.9247 31.8704 24.1981 31.8739 24.5177C31.8704 24.7343 31.8136 24.9314 31.7035 25.109C31.5969 25.2865 31.4549 25.4286 31.2773 25.5351C31.1033 25.6381 30.9116 25.6896 30.7021 25.6896ZM30.7021 20.283C30.3789 20.283 30.1019 20.1694 29.8711 19.9421C29.6403 19.7113 29.5266 19.4343 29.5302 19.1111C29.5266 18.7915 29.6403 18.5181 29.8711 18.2908C30.1019 18.06 30.3789 17.9446 30.7021 17.9446C31.0146 17.9446 31.2862 18.06 31.517 18.2908C31.7514 18.5181 31.8704 18.7915 31.8739 19.1111C31.8704 19.3242 31.8136 19.5195 31.7035 19.6971C31.5969 19.8746 31.4549 20.0167 31.2773 20.1232C31.1033 20.2297 30.9116 20.283 30.7021 20.283ZM37.2586 27.1491C36.4916 27.1491 35.8097 27.0177 35.2132 26.7549C34.6201 26.4922 34.1514 26.1264 33.8069 25.6576C33.4624 25.1889 33.2796 24.6473 33.2583 24.033H35.2611C35.2789 24.3277 35.3765 24.5852 35.5541 24.8054C35.7316 25.022 35.9678 25.1907 36.2625 25.3114C36.5573 25.4321 36.8875 25.4925 37.2533 25.4925C37.6439 25.4925 37.9901 25.425 38.292 25.2901C38.5938 25.1516 38.83 24.9598 39.0004 24.7148C39.1709 24.4698 39.2544 24.1875 39.2508 23.8679C39.2544 23.5376 39.1691 23.2464 38.9951 22.9943C38.8211 22.7422 38.569 22.5451 38.2387 22.403C37.912 22.261 37.5178 22.19 37.0562 22.19H36.0921V20.6665H37.0562C37.4362 20.6665 37.7682 20.6008 38.0523 20.4694C38.3399 20.338 38.5654 20.1534 38.7288 19.9155C38.8921 19.674 38.972 19.3952 38.9685 19.0792C38.972 18.7702 38.9028 18.5021 38.7607 18.2748C38.6222 18.044 38.4252 17.8647 38.1695 17.7368C37.9173 17.609 37.6208 17.5451 37.2799 17.5451C36.9461 17.5451 36.6372 17.6054 36.3531 17.7262C36.069 17.8469 35.8399 18.0191 35.6659 18.2429C35.4919 18.463 35.3996 18.7258 35.3889 19.0312H33.4873C33.5015 18.4204 33.6773 17.8842 34.0146 17.4226C34.3556 16.9574 34.8101 16.5951 35.3783 16.3359C35.9465 16.0731 36.5839 15.9417 37.2906 15.9417C38.0186 15.9417 38.6507 16.0784 39.1869 16.3519C39.7267 16.6218 40.1439 16.9858 40.4387 17.4439C40.7334 17.902 40.8808 18.408 40.8808 18.962C40.8843 19.5763 40.7032 20.0912 40.3374 20.5067C39.9752 20.9222 39.4994 21.1939 38.9099 21.3217V21.4069C39.6769 21.5135 40.2646 21.7976 40.673 22.2592C41.085 22.7173 41.2892 23.2873 41.2856 23.9691C41.2856 24.5799 41.1116 25.1267 40.7636 25.6097C40.4191 26.0891 39.9433 26.4655 39.336 26.739C38.7323 27.0124 38.0399 27.1491 37.2586 27.1491ZM46.6463 27.2077C45.7692 27.2077 45.0163 26.9858 44.3878 26.5419C43.7628 26.0944 43.2816 25.4499 42.9442 24.6083C42.6104 23.7631 42.4435 22.7457 42.4435 21.5561C42.4471 20.3664 42.6158 19.3544 42.9496 18.5199C43.2869 17.6818 43.7681 17.0426 44.3931 16.6022C45.0217 16.1619 45.7727 15.9417 46.6463 15.9417C47.5199 15.9417 48.271 16.1619 48.8995 16.6022C49.5281 17.0426 50.0092 17.6818 50.343 18.5199C50.6804 19.3579 50.8491 20.37 50.8491 21.5561C50.8491 22.7493 50.6804 23.7684 50.343 24.6136C50.0092 25.4552 49.5281 26.098 48.8995 26.5419C48.2745 26.9858 47.5234 27.2077 46.6463 27.2077ZM46.6463 25.5405C47.3281 25.5405 47.8661 25.2049 48.2603 24.5337C48.658 23.859 48.8569 22.8664 48.8569 21.5561C48.8569 20.6896 48.7663 19.9616 48.5852 19.3721C48.4041 18.7826 48.1484 18.3387 47.8182 18.0405C47.4879 17.7386 47.0973 17.5877 46.6463 17.5877C45.968 17.5877 45.4318 17.925 45.0376 18.5998C44.6435 19.2709 44.4446 20.2564 44.4411 21.5561C44.4375 22.4261 44.5245 23.1576 44.7021 23.7507C44.8832 24.3437 45.1388 24.7912 45.4691 25.093C45.7994 25.3913 46.1918 25.5405 46.6463 25.5405Z" fill="white"/>
<path d="M311.731 18.2205C312.035 18.4297 312.082 18.8568 311.852 19.1447L305.683 26.8423C305.16 27.497 304.167 27.497 303.644 26.8423L297.475 19.1447C297.245 18.8568 297.292 18.4296 297.595 18.2201C298.671 17.4777 301.214 16 304.663 16C308.109 16 310.655 17.4782 311.731 18.2205Z" fill="white"/>
<path d="M346.663 17.6667C346.663 17.1144 346.216 16.6667 345.663 16.6667H344.663V15.3333H340.663V16.6667H339.663C339.111 16.6667 338.663 17.1144 338.663 17.6667V27.6667C338.663 28.219 339.111 28.6667 339.663 28.6667H345.663C346.216 28.6667 346.663 28.219 346.663 27.6667V17.6667Z" fill="white"/>
<path d="M327.525 16.4714C327.945 16.0514 328.663 16.3489 328.663 16.9428V27.3334C328.663 28.0697 328.066 28.6667 327.33 28.6667H316.94C316.346 28.6667 316.048 27.9486 316.468 27.5286L327.525 16.4714Z" fill="white"/>
<circle cx="180" cy="22" r="9" fill="#BAC0CA"/>
<rect x="113" y="787" width="134" height="5" rx="2.5" fill="#545F71"/>
<circle cx="329" cy="76" r="18" fill="#828A98"/>
<path d="M325.195 77.75V77.6406H326.961V77.7656C326.961 78.4531 327.128 78.9609 327.461 79.2891C327.794 79.6172 328.26 79.7812 328.859 79.7812C329.464 79.7812 329.932 79.6016 330.266 79.2422C330.599 78.8776 330.766 78.3229 330.766 77.5781V69.625H332.547V77.5156C332.547 78.6771 332.211 79.5859 331.539 80.2422C330.872 80.8984 329.984 81.2266 328.875 81.2266C327.766 81.2266 326.875 80.9271 326.203 80.3281C325.531 79.724 325.195 78.8646 325.195 77.75Z" fill="white"/>
<rect x="12.5" y="240.5" width="335" height="224" rx="24.5" fill="url(#paint0_linear_6_202)" stroke="#373A3E"/>
<rect x="12.5" y="546.5" width="335" height="81" rx="16.5" fill="#D2E5F8" stroke="#373A3E"/>
<circle cx="41" cy="271" r="14.75" fill="#005EB8" stroke="white" stroke-width="0.5"/>
<g clip-path="url(#clip1_6_202)">
<path d="M41.0002 261L49.2627 264.75H50.3752C50.541 264.75 50.7 264.816 50.8172 264.933C50.9344 265.05 51.0002 265.209 51.0002 265.375V267.875C51.0002 268.041 50.9344 268.2 50.8172 268.317C50.7 268.434 50.541 268.5 50.3752 268.5H49.7502V277.25C49.8898 277.25 50.0253 277.297 50.1352 277.383C50.2451 277.469 50.323 277.589 50.3565 277.725L50.9815 280.225C51.0047 280.317 51.0066 280.413 50.987 280.506C50.9674 280.599 50.9268 280.686 50.8682 280.761C50.8097 280.836 50.7349 280.896 50.6494 280.938C50.564 280.979 50.4702 281 50.3752 281H31.6252C31.5303 281 31.4365 280.979 31.351 280.938C31.2656 280.896 31.1907 280.836 31.1322 280.761C31.0737 280.686 31.0331 280.599 31.0134 280.506C30.9938 280.413 30.9957 280.317 31.019 280.225L31.644 277.725C31.6777 277.59 31.7556 277.469 31.8654 277.383C31.9753 277.297 32.1107 277.25 32.2502 277.25V268.5H31.6252C31.4595 268.5 31.3005 268.434 31.1833 268.317C31.0661 268.2 31.0002 268.041 31.0002 267.875V265.375C31.0002 265.209 31.0661 265.05 31.1833 264.933C31.3005 264.816 31.4595 264.75 31.6252 264.75H32.7377L41.0002 261ZM35.7215 264.75H46.2802L41.0002 262.25L35.7215 264.75ZM33.5002 268.5V277.25H34.7502V268.5H33.5002ZM36.0002 268.5V277.25H39.1252V268.5H36.0002ZM40.3752 268.5V277.25H41.6252V268.5H40.3752ZM42.8752 268.5V277.25H46.0002V268.5H42.8752ZM47.2502 268.5V277.25H48.5002V268.5H47.2502ZM49.7502 267.25V266H32.2502V267.25H49.7502ZM49.2627 278.5H32.7377L32.4252 279.75H49.5752L49.2627 278.5Z" fill="white"/>
</g>
<line x1="13" y1="299.5" x2="347" y2="299.5" stroke="#4A82B8"/>
<path d="M71.5293 276L72.165 272.411L69.834 266.047H71.7549L73.1768 269.971C73.2269 270.103 73.2679 270.228 73.2998 270.347C73.3317 270.465 73.359 270.588 73.3818 270.716H73.4229C73.4912 270.588 73.5618 270.465 73.6348 270.347C73.7122 270.228 73.7988 270.103 73.8945 269.971L76.6084 266.047H78.5225L74.0176 272.336L73.3682 276H71.5293ZM76.9229 272.507L76.9639 272.288C77.1598 271.167 77.6475 270.271 78.4268 269.602C79.2106 268.927 80.1426 268.59 81.2227 268.59C82.2982 268.59 83.1071 268.927 83.6494 269.602C84.1963 270.271 84.3717 271.167 84.1758 272.288L84.1348 272.507C83.9388 273.623 83.4489 274.519 82.665 275.193C81.8857 275.868 80.9561 276.205 79.876 276.205C78.8005 276.205 77.9893 275.868 77.4424 275.193C76.9001 274.519 76.7269 273.623 76.9229 272.507ZM78.7959 272.213L78.7275 272.582C78.6045 273.275 78.6615 273.824 78.8984 274.229C79.1354 274.631 79.5433 274.831 80.1221 274.831C80.7008 274.831 81.1771 274.631 81.5508 274.229C81.929 273.824 82.1797 273.275 82.3027 272.582L82.3643 272.213C82.4873 271.516 82.4281 270.966 82.1865 270.565C81.9495 270.164 81.5462 269.964 80.9766 269.964C80.4023 269.964 79.9238 270.164 79.541 270.565C79.1628 270.966 78.9144 271.516 78.7959 272.213ZM85.3926 273.279L86.1855 268.795H87.9629L87.1631 273.327C87.0719 273.851 87.1175 274.218 87.2998 274.428C87.4821 274.637 87.7669 274.742 88.1543 274.742C88.5007 274.742 88.8242 274.646 89.125 274.455C89.4258 274.259 89.6696 274.015 89.8564 273.724L90.7246 268.795H92.502L91.2373 276H89.5693L89.6719 275.152H89.6309C89.3483 275.458 89.0065 275.699 88.6055 275.877C88.2044 276.05 87.776 276.137 87.3203 276.137C86.6003 276.137 86.0534 275.918 85.6797 275.48C85.306 275.043 85.2103 274.309 85.3926 273.279ZM93.1035 276L94.375 268.795H96.043L95.9473 269.629H95.9883C96.1888 269.351 96.4417 269.109 96.7471 268.904C97.0524 268.699 97.3805 268.597 97.7314 268.597C97.8271 268.597 97.9229 268.608 98.0186 268.631C98.1143 268.654 98.1826 268.674 98.2236 268.692L97.9502 270.251C97.8682 270.233 97.7816 270.219 97.6904 270.21C97.5993 270.201 97.4967 270.196 97.3828 270.196C97.041 270.196 96.722 270.294 96.4258 270.49C96.1341 270.682 95.9017 270.925 95.7285 271.222L94.8877 276H93.1035ZM101.676 276L103.433 266.047H107.001C108.067 266.047 108.867 266.261 109.4 266.689C109.938 267.113 110.127 267.776 109.968 268.679C109.872 269.226 109.662 269.674 109.339 270.025C109.015 270.372 108.651 270.613 108.245 270.75V270.777C108.687 270.914 109.027 271.181 109.264 271.577C109.501 271.969 109.562 272.486 109.448 273.129C109.289 274.04 108.844 274.747 108.115 275.248C107.386 275.749 106.495 276 105.442 276H101.676ZM103.727 274.653H105.654C106.242 274.653 106.698 274.51 107.021 274.223C107.345 273.936 107.55 273.546 107.637 273.054C107.723 272.571 107.653 272.188 107.425 271.905C107.201 271.618 106.796 271.475 106.208 271.475H104.287L103.727 274.653ZM104.513 270.183H106.235C106.823 270.183 107.268 270.06 107.568 269.813C107.869 269.567 108.058 269.223 108.136 268.781C108.213 268.339 108.145 268 107.931 267.763C107.716 267.521 107.318 267.4 106.734 267.4H105.005L104.513 270.183ZM110.508 273.881C110.645 273.097 111.052 272.505 111.731 272.104C112.41 271.698 113.213 271.495 114.138 271.495H115.607L115.683 271.058C115.746 270.702 115.705 270.413 115.56 270.189C115.418 269.962 115.115 269.848 114.65 269.848C114.186 269.848 113.839 269.941 113.611 270.128C113.383 270.315 113.247 270.536 113.201 270.791L113.188 270.873H111.431L111.444 270.791C111.554 270.171 111.932 269.649 112.579 269.226C113.226 268.802 114.012 268.59 114.938 268.59C115.867 268.59 116.558 268.795 117.009 269.205C117.46 269.611 117.61 270.23 117.46 271.064L116.879 274.373C116.829 274.669 116.806 274.95 116.811 275.214C116.815 275.474 116.842 275.699 116.893 275.891L116.872 276H115.136C115.095 275.891 115.067 275.749 115.054 275.576C115.04 275.403 115.04 275.232 115.054 275.063C114.858 275.341 114.546 275.59 114.117 275.809C113.689 276.027 113.181 276.137 112.593 276.137C111.896 276.137 111.34 275.948 110.925 275.569C110.515 275.187 110.376 274.624 110.508 273.881ZM112.312 273.737C112.253 274.084 112.306 274.362 112.47 274.571C112.634 274.776 112.932 274.879 113.365 274.879C113.821 274.879 114.236 274.731 114.609 274.435C114.983 274.138 115.202 273.799 115.266 273.416L115.409 272.616H114.172C113.616 272.616 113.183 272.714 112.873 272.91C112.563 273.106 112.376 273.382 112.312 273.737ZM118.465 276L119.736 268.795H121.404L121.302 269.643H121.343C121.603 269.346 121.933 269.107 122.334 268.925C122.74 268.743 123.166 268.651 123.612 268.651C124.346 268.651 124.904 268.861 125.287 269.28C125.67 269.695 125.77 270.417 125.588 271.447L124.788 276H123.011L123.817 271.399C123.904 270.907 123.858 270.561 123.681 270.36C123.503 270.155 123.216 270.053 122.819 270.053C122.491 270.053 122.174 270.144 121.869 270.326C121.564 270.508 121.311 270.759 121.11 271.078L120.242 276H118.465ZM126.586 276L128.432 265.521H130.209L129.136 271.611L132.239 268.795H134.215L128.773 273.683L128.363 276H126.586ZM131.255 276L129.279 272.521L130.53 271.263L133.251 276H131.255Z" fill="white"/>
<path d="M26.3965 439.774L26.7998 438.544L29.3018 439.624L29.042 436.91H30.3408L30.0811 439.624L32.583 438.544L32.9863 439.774L30.3271 440.376L32.1318 442.413L31.0791 443.179L29.6914 440.827L28.3037 443.179L27.251 442.413L29.0557 440.376L26.3965 439.774ZM35.7793 439.774L36.1826 438.544L38.6846 439.624L38.4248 436.91H39.7236L39.4639 439.624L41.9658 438.544L42.3691 439.774L39.71 440.376L41.5146 442.413L40.4619 443.179L39.0742 440.827L37.6865 443.179L36.6338 442.413L38.4385 440.376L35.7793 439.774ZM45.1621 439.774L45.5654 438.544L48.0674 439.624L47.8076 436.91H49.1064L48.8467 439.624L51.3486 438.544L51.752 439.774L49.0928 440.376L50.8975 442.413L49.8447 443.179L48.457 440.827L47.0693 443.179L46.0166 442.413L47.8213 440.376L45.1621 439.774ZM54.5449 439.774L54.9482 438.544L57.4502 439.624L57.1904 436.91H58.4893L58.2295 439.624L60.7314 438.544L61.1348 439.774L58.4756 440.376L60.2803 442.413L59.2275 443.179L57.8398 440.827L56.4521 443.179L55.3994 442.413L57.2041 440.376L54.5449 439.774ZM72.6406 447V438.489L70.125 439.549V438.277L73.748 436.91H73.9531V447H72.6406ZM79.6035 447V446.043L83.1582 442.215C83.6322 441.714 83.9899 441.269 84.2314 440.882C84.473 440.494 84.5938 440.073 84.5938 439.617C84.5938 439.161 84.4388 438.765 84.1289 438.428C83.8236 438.09 83.3975 437.922 82.8506 437.922C82.3037 437.922 81.8411 438.102 81.4629 438.462C81.0892 438.822 80.9023 439.321 80.9023 439.959V440.027H79.6035V439.959C79.6035 439.048 79.9134 438.3 80.5332 437.717C81.1576 437.133 81.93 436.842 82.8506 436.842C83.762 436.842 84.4958 437.111 85.0518 437.648C85.6123 438.186 85.8926 438.82 85.8926 439.549C85.8926 440.196 85.7103 440.784 85.3457 441.312C84.9811 441.841 84.5368 442.381 84.0127 442.933L81.2305 445.865H86.166V447H79.6035ZM89.3008 444.402V444.334H90.5723V444.402C90.5723 444.949 90.7546 445.373 91.1191 445.674C91.4837 445.975 91.9668 446.125 92.5684 446.125C93.1699 446.125 93.6507 445.975 94.0107 445.674C94.3708 445.373 94.5508 444.904 94.5508 444.266C94.5508 443.628 94.348 443.147 93.9424 442.823C93.5368 442.5 92.9922 442.338 92.3086 442.338H91.5225V441.285H92.2402C92.8691 441.285 93.3545 441.132 93.6963 440.827C94.0381 440.522 94.209 440.096 94.209 439.549C94.209 439.002 94.0609 438.594 93.7646 438.325C93.4684 438.056 93.0697 437.922 92.5684 437.922C92.0397 437.922 91.6204 438.056 91.3105 438.325C91.0007 438.594 90.8457 438.979 90.8457 439.48V439.549H89.5742V439.48C89.5742 438.751 89.8499 438.129 90.4014 437.614C90.9528 437.099 91.6751 436.842 92.5684 436.842C93.4342 436.842 94.1429 437.088 94.6943 437.58C95.2458 438.072 95.5215 438.706 95.5215 439.48C95.5215 439.936 95.3962 440.374 95.1455 440.793C94.8949 441.212 94.5052 441.536 93.9766 441.764V441.791C94.5508 441.937 95.0111 442.226 95.3574 442.659C95.7038 443.092 95.877 443.625 95.877 444.259C95.877 445.175 95.5648 445.895 94.9404 446.419C94.3161 446.943 93.5254 447.205 92.5684 447.205C91.5566 447.205 90.7591 446.943 90.1758 446.419C89.5924 445.895 89.3008 445.223 89.3008 444.402ZM103.605 447V444.279V443.924V439.146H103.523L100.495 443.582H103.954H104.48H106.23V444.662H98.998V443.801L103.66 437.047H104.836V447H103.605Z" fill="white"/>
<rect x="198" y="710" width="151" height="48" rx="20" fill="#4CDADB"/>
<path d="M225 735H219V733H225V727H227V733H233V735H227V741H225V735Z" fill="#1E1E1E"/>
<path d="M247.938 739L251.719 728.985H253.243L257.051 739H255.383L252.71 731.645C252.655 731.49 252.607 731.341 252.566 731.2C252.53 731.059 252.496 730.915 252.464 730.77H252.402C252.37 730.915 252.334 731.061 252.293 731.207C252.257 731.348 252.211 731.494 252.156 731.645L249.463 739H247.938ZM249.736 736.539L250.167 735.295H254.754L255.178 736.539H249.736ZM257.55 735.507V735.288C257.55 734.231 257.828 733.363 258.384 732.684C258.944 732.005 259.683 731.665 260.599 731.665C261.082 731.665 261.496 731.752 261.843 731.925C262.189 732.098 262.463 732.326 262.663 732.608V728.514H264.181V739H262.772L262.725 738.098H262.684C262.515 738.389 262.246 738.635 261.877 738.836C261.512 739.036 261.089 739.137 260.605 739.137C259.671 739.137 258.928 738.797 258.377 738.118C257.826 737.435 257.55 736.564 257.55 735.507ZM259.108 735.541C259.108 736.225 259.257 736.794 259.553 737.25C259.854 737.706 260.316 737.934 260.94 737.934C261.364 737.934 261.722 737.82 262.014 737.592C262.31 737.359 262.524 737.09 262.656 736.785V734.01C262.524 733.709 262.312 733.445 262.021 733.217C261.733 732.984 261.376 732.868 260.947 732.868C260.323 732.868 259.86 733.096 259.56 733.552C259.259 734.007 259.108 734.577 259.108 735.261V735.541ZM265.712 735.507V735.288C265.712 734.231 265.99 733.363 266.546 732.684C267.106 732.005 267.845 731.665 268.761 731.665C269.244 731.665 269.659 731.752 270.005 731.925C270.351 732.098 270.625 732.326 270.825 732.608V728.514H272.343V739H270.935L270.887 738.098H270.846C270.677 738.389 270.408 738.635 270.039 738.836C269.674 739.036 269.251 739.137 268.768 739.137C267.833 739.137 267.09 738.797 266.539 738.118C265.988 737.435 265.712 736.564 265.712 735.507ZM267.271 735.541C267.271 736.225 267.419 736.794 267.715 737.25C268.016 737.706 268.478 737.934 269.103 737.934C269.526 737.934 269.884 737.82 270.176 737.592C270.472 737.359 270.686 737.09 270.818 736.785V734.01C270.686 733.709 270.474 733.445 270.183 733.217C269.896 732.984 269.538 732.868 269.109 732.868C268.485 732.868 268.022 733.096 267.722 733.552C267.421 734.007 267.271 734.577 267.271 735.261V735.541ZM276.738 732.943V731.802H280.949V732.943H276.738ZM277.955 737.1V732.451V732.246V730.052H279.473V737.086C279.473 737.405 279.536 737.633 279.664 737.77C279.792 737.902 279.981 737.968 280.231 737.968C280.354 737.968 280.473 737.954 280.587 737.927C280.705 737.899 280.824 737.863 280.942 737.817V739C280.828 739.055 280.676 739.103 280.484 739.144C280.293 739.185 280.083 739.205 279.855 739.205C279.277 739.205 278.814 739.036 278.468 738.699C278.126 738.357 277.955 737.824 277.955 737.1ZM281.694 735.507V735.288C281.694 734.19 282.013 733.301 282.651 732.622C283.294 731.938 284.142 731.597 285.194 731.597C286.247 731.597 287.092 731.938 287.73 732.622C288.368 733.301 288.688 734.19 288.688 735.288V735.507C288.688 736.61 288.368 737.503 287.73 738.187C287.092 738.866 286.247 739.205 285.194 739.205C284.142 739.205 283.294 738.866 282.651 738.187C282.013 737.503 281.694 736.61 281.694 735.507ZM283.253 735.254V735.548C283.253 736.268 283.417 736.856 283.745 737.312C284.073 737.767 284.556 737.995 285.194 737.995C285.828 737.995 286.309 737.767 286.637 737.312C286.965 736.856 287.129 736.268 287.129 735.548V735.254C287.129 734.534 286.963 733.946 286.63 733.49C286.302 733.03 285.823 732.8 285.194 732.8C284.561 732.8 284.078 733.03 283.745 733.49C283.417 733.946 283.253 734.534 283.253 735.254ZM295.373 739.055L292.96 729.047H294.532L296.152 736.19C296.184 736.345 296.207 736.471 296.221 736.566C296.239 736.658 296.257 736.781 296.275 736.936H296.344C296.357 736.781 296.371 736.658 296.385 736.566C296.403 736.471 296.43 736.345 296.467 736.19L298.244 729.047H299.905L301.73 736.19C301.771 736.345 301.799 736.471 301.812 736.566C301.826 736.658 301.842 736.781 301.86 736.936H301.922C301.94 736.781 301.958 736.658 301.977 736.566C301.995 736.471 302.02 736.345 302.052 736.19L303.61 729.047H305.087L302.688 739.055H301.067L299.222 731.904C299.181 731.745 299.146 731.599 299.119 731.467C299.092 731.33 299.069 731.187 299.051 731.036H298.996C298.973 731.187 298.948 731.33 298.921 731.467C298.898 731.599 298.866 731.745 298.825 731.904L296.979 739.055H295.373ZM305.736 736.881C305.736 736.124 306.033 735.546 306.625 735.145C307.217 734.739 307.967 734.534 308.874 734.529H310.426V734.071C310.426 733.675 310.323 733.354 310.118 733.107C309.913 732.857 309.56 732.731 309.059 732.731C308.553 732.731 308.19 732.834 307.972 733.039C307.757 733.244 307.65 733.486 307.65 733.764V733.825H306.14V733.764C306.14 733.167 306.409 732.656 306.946 732.232C307.489 731.809 308.209 731.597 309.106 731.597C310.004 731.597 310.701 731.802 311.198 732.212C311.7 732.622 311.95 733.242 311.95 734.071V737.366C311.95 737.662 311.973 737.943 312.019 738.207C312.069 738.467 312.137 738.695 312.224 738.891V739H310.733C310.674 738.891 310.619 738.747 310.569 738.569C310.519 738.387 310.487 738.209 310.474 738.036C310.319 738.323 310.05 738.578 309.667 738.802C309.284 739.025 308.797 739.137 308.204 739.137C307.516 739.137 306.933 738.945 306.454 738.562C305.976 738.18 305.736 737.619 305.736 736.881ZM307.261 736.771C307.261 737.15 307.37 737.451 307.589 737.674C307.808 737.893 308.152 738.002 308.621 738.002C309.095 738.002 309.514 737.842 309.879 737.523C310.243 737.2 310.426 736.847 310.426 736.464V735.548H309.059C308.462 735.548 308.013 735.657 307.712 735.876C307.411 736.095 307.261 736.393 307.261 736.771ZM313.926 739V728.514H315.45V739H313.926ZM317.48 739V728.514H319.005V739H317.48ZM320.577 735.507V735.288C320.577 734.194 320.887 733.306 321.507 732.622C322.127 731.938 322.938 731.597 323.94 731.597C324.943 731.597 325.72 731.918 326.271 732.561C326.823 733.199 327.099 734.067 327.099 735.165V735.76H321.562V734.659H325.581V734.502C325.581 734.023 325.442 733.618 325.164 733.285C324.886 732.948 324.49 732.779 323.975 732.779C323.355 732.779 322.89 733.014 322.58 733.483C322.27 733.948 322.115 734.538 322.115 735.254V735.548C322.115 736.254 322.279 736.842 322.607 737.312C322.94 737.776 323.444 738.009 324.118 738.009C324.551 738.009 324.923 737.911 325.232 737.715C325.547 737.519 325.802 737.289 325.998 737.024L327.023 737.77C326.796 738.143 326.431 738.476 325.93 738.768C325.433 739.059 324.834 739.205 324.132 739.205C322.997 739.205 322.12 738.863 321.5 738.18C320.885 737.496 320.577 736.605 320.577 735.507ZM327.598 732.943V731.802H331.809V732.943H327.598ZM328.814 737.1V732.451V732.246V730.052H330.332V737.086C330.332 737.405 330.396 737.633 330.523 737.77C330.651 737.902 330.84 737.968 331.091 737.968C331.214 737.968 331.332 737.954 331.446 737.927C331.565 737.899 331.683 737.863 331.802 737.817V739C331.688 739.055 331.535 739.103 331.344 739.144C331.152 739.185 330.943 739.205 330.715 739.205C330.136 739.205 329.674 739.036 329.327 738.699C328.985 738.357 328.814 737.824 328.814 737.1Z" fill="#1E1E1E"/>
<circle cx="180" cy="168" r="35" stroke="#BAC0CA" stroke-width="2"/>
<g clip-path="url(#clip2_6_202)">
<path d="M303.567 451.726H298.787L301.777 433.333H306.556L303.567 451.726Z" fill="white"/>
<path d="M320.892 433.783C319.95 433.411 318.454 433 316.606 433C311.886 433 308.562 435.504 308.542 439.085C308.503 441.727 310.921 443.194 312.73 444.075C314.58 444.975 315.208 445.562 315.208 446.364C315.189 447.597 313.714 448.165 312.338 448.165C310.43 448.165 309.407 447.872 307.854 447.186L307.224 446.892L306.555 451.021C307.676 451.529 309.742 451.98 311.886 452C316.901 452 320.166 449.534 320.204 445.719C320.223 443.625 318.946 442.021 316.192 440.71C314.521 439.868 313.497 439.301 313.497 438.44C313.517 437.657 314.363 436.855 316.25 436.855C317.804 436.816 318.945 437.187 319.81 437.559L320.242 437.755L320.892 433.783Z" fill="white"/>
<path d="M327.245 445.21C327.638 444.153 329.153 440.064 329.153 440.064C329.133 440.103 329.546 438.988 329.782 438.303L330.116 439.888C330.116 439.888 331.021 444.291 331.217 445.21C330.47 445.21 328.189 445.21 327.245 445.21ZM333.144 433.333H329.447C328.307 433.333 327.441 433.666 326.949 434.859L319.85 451.726H324.865C324.865 451.726 325.691 449.456 325.868 448.967C326.418 448.967 331.297 448.967 332.004 448.967C332.142 449.612 332.575 451.726 332.575 451.726H337L333.144 433.333Z" fill="white"/>
<path d="M294.795 433.333L290.115 445.875L289.603 443.332C288.738 440.397 286.024 437.208 282.995 435.622L287.283 451.706H292.337L299.849 433.333H294.795Z" fill="white"/>
<path d="M285.768 433.333H278.079L278 433.705C283.998 435.231 287.971 438.91 289.603 443.332L287.932 434.879C287.656 433.705 286.811 433.372 285.768 433.333Z" fill="white"/>
</g>
<path d="M16.7891 83.0781L13.3711 68.7812H15.5586L17.8828 79.0742C17.9284 79.2826 17.9609 79.4551 17.9805 79.5918C18.0065 79.7285 18.0326 79.9043 18.0586 80.1191H18.1465C18.1725 79.9043 18.1953 79.7285 18.2148 79.5918C18.2409 79.4551 18.2799 79.2826 18.332 79.0742L20.8711 68.7812H23.1855L25.8027 79.0645C25.8548 79.2728 25.8906 79.4486 25.9102 79.5918C25.9362 79.7285 25.9622 79.9043 25.9883 80.1191H26.0664C26.0924 79.9043 26.1152 79.7285 26.1348 79.5918C26.1608 79.4486 26.1966 79.2728 26.2422 79.0645L28.4883 68.7812H30.5488L27.1504 83.0781H24.875L22.2285 72.7461C22.1764 72.5443 22.1309 72.349 22.0918 72.1602C22.0592 71.9648 22.0267 71.7598 21.9941 71.5449H21.9258C21.8932 71.7598 21.8574 71.9648 21.8184 72.1602C21.7858 72.349 21.7402 72.5443 21.6816 72.7461L19.0449 83.0781H16.7891ZM31.3887 80.041C31.3887 78.9863 31.8021 78.1758 32.6289 77.6094C33.4557 77.0365 34.5072 76.75 35.7832 76.75H38V76.0664C38 75.5 37.8535 75.0475 37.5605 74.709C37.2676 74.3639 36.7663 74.1914 36.0566 74.1914C35.3535 74.1914 34.8457 74.3346 34.5332 74.6211C34.2207 74.9076 34.0645 75.2526 34.0645 75.6562V75.7637L31.9648 75.7539V75.6465C31.9648 74.8066 32.3424 74.0938 33.0977 73.5078C33.8594 72.9154 34.8717 72.6191 36.1348 72.6191C37.3978 72.6191 38.3776 72.9056 39.0742 73.4785C39.7773 74.0449 40.1289 74.9108 40.1289 76.0762V80.6758C40.1289 81.099 40.1615 81.4961 40.2266 81.8672C40.2917 82.2383 40.3861 82.5638 40.5098 82.8438V83H38.4395C38.3483 82.8372 38.2669 82.6322 38.1953 82.3848C38.1302 82.1309 38.0846 81.877 38.0586 81.623C37.8372 82.0332 37.4564 82.3978 36.916 82.7168C36.3757 83.0293 35.6855 83.1855 34.8457 83.1855C33.8691 83.1855 33.0488 82.9186 32.3848 82.3848C31.7207 81.8509 31.3887 81.0697 31.3887 80.041ZM33.5176 79.8945C33.5176 80.4284 33.6738 80.8483 33.9863 81.1543C34.2988 81.4603 34.7806 81.6133 35.4316 81.6133C36.1022 81.6133 36.6979 81.3887 37.2188 80.9395C37.7396 80.4837 38 79.9824 38 79.4355V78.1562H36.0762C35.2233 78.1562 34.582 78.3092 34.1523 78.6152C33.7292 78.9212 33.5176 79.3477 33.5176 79.8945ZM42.8438 83V68.1172H44.9824V83H42.8438ZM47.7656 83V68.1172H49.9043V83H47.7656ZM52.0527 78.0977V77.7852C52.0527 76.2487 52.4857 75.002 53.3516 74.0449C54.224 73.0879 55.3633 72.6094 56.7695 72.6094C58.1823 72.6094 59.2728 73.0586 60.041 73.957C60.8158 74.849 61.2031 76.0697 61.2031 77.6191V78.4297H53.3906V76.916H59.084V76.7109C59.084 76.0339 58.8887 75.4577 58.498 74.9824C58.1139 74.5007 57.5508 74.2598 56.8086 74.2598C55.9427 74.2598 55.2917 74.5885 54.8555 75.2461C54.4193 75.8971 54.2012 76.724 54.2012 77.7266V78.1465C54.2012 79.1556 54.4323 79.9889 54.8945 80.6465C55.3568 81.2975 56.0599 81.623 57.0039 81.623C57.6159 81.623 58.14 81.4863 58.5762 81.2129C59.0189 80.9329 59.3737 80.6074 59.6406 80.2363L61.0957 81.2422C60.7767 81.776 60.2689 82.2513 59.5723 82.668C58.8757 83.0781 58.026 83.2832 57.0234 83.2832C55.4414 83.2832 54.2174 82.8047 53.3516 81.8477C52.4857 80.8906 52.0527 79.6406 52.0527 78.0977ZM61.8965 74.5039V72.9023H67.834V74.5039H61.8965ZM63.6055 80.3047V73.752V73.4883V70.2852H65.7246V80.2461C65.7246 80.7409 65.8158 81.0827 65.998 81.2715C66.1803 81.4603 66.4538 81.5547 66.8184 81.5547C66.9876 81.5547 67.1536 81.5384 67.3164 81.5059C67.4857 81.4668 67.6517 81.4147 67.8145 81.3496V83C67.6517 83.0716 67.4336 83.1367 67.1602 83.1953C66.8932 83.2539 66.597 83.2832 66.2715 83.2832C65.4577 83.2832 64.8099 83.0456 64.3281 82.5703C63.8464 82.0951 63.6055 81.3398 63.6055 80.3047Z" fill="white"/>
<path d="M80.1279 592V582.047H81.7002V586.237H86.3828V582.047H87.9551V592H86.3828V587.495H81.7002V592H80.1279ZM90.2178 592V582.047H93.5879C94.6862 582.047 95.5361 582.316 96.1377 582.854C96.7393 583.391 97.04 584.123 97.04 585.048C97.04 585.968 96.737 586.707 96.1309 587.263C95.5293 587.814 94.6816 588.09 93.5879 588.09H91.79V592H90.2178ZM91.79 586.859H93.5605C94.2715 586.859 94.766 586.688 95.0439 586.347C95.3265 586 95.4678 585.567 95.4678 585.048C95.4678 584.533 95.3265 584.109 95.0439 583.776C94.766 583.444 94.2715 583.277 93.5605 583.277H91.79V586.859ZM95.7959 592L93.3965 587.406L94.9961 587.242L97.5527 592H95.7959ZM97.3887 583.298V582.047H105.202V583.298H102.078V592H100.506V583.298H97.3887ZM109.632 592V582.047H113.091C114.207 582.047 115.064 582.323 115.661 582.874C116.263 583.425 116.563 584.177 116.563 585.13C116.563 586.082 116.263 586.839 115.661 587.399C115.064 587.96 114.207 588.24 113.091 588.24H111.204V592H109.632ZM111.204 586.996H113.029C113.758 586.996 114.267 586.821 114.554 586.47C114.845 586.114 114.991 585.668 114.991 585.13C114.991 584.592 114.845 584.152 114.554 583.811C114.267 583.464 113.758 583.291 113.029 583.291H111.204V586.996ZM117.883 592V584.802H119.291L119.346 585.677H119.387C119.555 585.39 119.781 585.139 120.063 584.925C120.346 584.706 120.676 584.597 121.055 584.597C121.15 584.597 121.251 584.608 121.355 584.631C121.465 584.654 121.54 584.674 121.581 584.692V586.066C121.494 586.048 121.403 586.035 121.308 586.025C121.212 586.012 121.105 586.005 120.986 586.005C120.613 586.005 120.289 586.107 120.016 586.312C119.742 586.518 119.539 586.773 119.407 587.078V592H117.883ZM122.21 588.507V588.288C122.21 587.194 122.52 586.306 123.14 585.622C123.759 584.938 124.571 584.597 125.573 584.597C126.576 584.597 127.353 584.918 127.904 585.561C128.456 586.199 128.731 587.067 128.731 588.165V588.76H123.194V587.659H127.214V587.502C127.214 587.023 127.075 586.618 126.797 586.285C126.519 585.948 126.122 585.779 125.607 585.779C124.988 585.779 124.523 586.014 124.213 586.483C123.903 586.948 123.748 587.538 123.748 588.254V588.548C123.748 589.254 123.912 589.842 124.24 590.312C124.573 590.776 125.076 591.009 125.751 591.009C126.184 591.009 126.555 590.911 126.865 590.715C127.18 590.519 127.435 590.289 127.631 590.024L128.656 590.77C128.428 591.143 128.064 591.476 127.562 591.768C127.066 592.059 126.466 592.205 125.765 592.205C124.63 592.205 123.753 591.863 123.133 591.18C122.518 590.496 122.21 589.605 122.21 588.507ZM129.743 589.826L131.254 589.833V589.888C131.254 590.28 131.393 590.571 131.671 590.763C131.953 590.954 132.327 591.05 132.792 591.05C133.257 591.05 133.619 590.959 133.879 590.776C134.139 590.59 134.269 590.35 134.269 590.059C134.269 589.762 134.155 589.537 133.927 589.382C133.703 589.227 133.202 589.063 132.423 588.89C131.625 588.707 131.01 588.448 130.577 588.11C130.144 587.769 129.928 587.304 129.928 586.716C129.928 586.091 130.183 585.583 130.693 585.191C131.204 584.795 131.89 584.597 132.751 584.597C133.608 584.597 134.296 584.797 134.815 585.198C135.34 585.595 135.602 586.132 135.602 586.812V586.866H134.091V586.784C134.091 586.465 133.981 586.215 133.763 586.032C133.544 585.85 133.204 585.759 132.744 585.759C132.288 585.759 131.956 585.841 131.746 586.005C131.536 586.169 131.432 586.376 131.432 586.627C131.432 586.878 131.555 587.078 131.801 587.229C132.047 587.374 132.562 587.536 133.346 587.714C134.143 587.892 134.747 588.154 135.157 588.5C135.572 588.842 135.779 589.329 135.779 589.963C135.779 590.633 135.529 591.175 135.027 591.59C134.526 592 133.781 592.205 132.792 592.205C131.808 592.205 131.053 591.998 130.529 591.583C130.005 591.164 129.743 590.594 129.743 589.874V589.826ZM136.866 588.507V588.288C136.866 587.185 137.174 586.294 137.789 585.615C138.409 584.936 139.247 584.597 140.305 584.597C141.289 584.597 142.039 584.856 142.554 585.376C143.069 585.896 143.333 586.486 143.347 587.146V587.215H141.87V587.16C141.87 586.791 141.743 586.472 141.487 586.203C141.237 585.93 140.84 585.793 140.298 585.793C139.664 585.793 139.193 586.028 138.883 586.497C138.577 586.962 138.425 587.548 138.425 588.254V588.548C138.425 589.254 138.575 589.842 138.876 590.312C139.181 590.776 139.655 591.009 140.298 591.009C140.854 591.009 141.253 590.872 141.494 590.599C141.74 590.321 141.863 589.999 141.863 589.635V589.587H143.347V589.642C143.347 590.302 143.085 590.895 142.561 591.419C142.041 591.943 141.289 592.205 140.305 592.205C139.247 592.205 138.409 591.866 137.789 591.187C137.174 590.503 136.866 589.61 136.866 588.507ZM144.748 592V584.802H146.156L146.211 585.677H146.252C146.421 585.39 146.646 585.139 146.929 584.925C147.211 584.706 147.542 584.597 147.92 584.597C148.016 584.597 148.116 584.608 148.221 584.631C148.33 584.654 148.405 584.674 148.446 584.692V586.066C148.36 586.048 148.269 586.035 148.173 586.025C148.077 586.012 147.97 586.005 147.852 586.005C147.478 586.005 147.154 586.107 146.881 586.312C146.607 586.518 146.405 586.773 146.272 587.078V592H144.748ZM149.677 592V584.802H151.208V592H149.677ZM149.513 582.689C149.513 582.443 149.592 582.236 149.752 582.067C149.911 581.899 150.142 581.814 150.442 581.814C150.739 581.814 150.966 581.899 151.126 582.067C151.285 582.236 151.365 582.443 151.365 582.689C151.365 582.931 151.285 583.136 151.126 583.305C150.966 583.473 150.739 583.558 150.442 583.558C150.142 583.558 149.911 583.473 149.752 583.305C149.592 583.136 149.513 582.931 149.513 582.689ZM153.197 594.844V584.802H154.599L154.646 585.697H154.688C154.861 585.406 155.134 585.162 155.508 584.966C155.882 584.765 156.31 584.665 156.793 584.665C157.709 584.665 158.443 585.002 158.994 585.677C159.55 586.351 159.828 587.222 159.828 588.288V588.507C159.828 589.573 159.552 590.446 159.001 591.125C158.454 591.799 157.725 592.137 156.813 592.137C156.33 592.137 155.911 592.052 155.556 591.884C155.2 591.711 154.922 591.48 154.722 591.193V594.844H153.197ZM154.722 589.778C154.849 590.079 155.063 590.348 155.364 590.585C155.67 590.817 156.032 590.934 156.451 590.934C157.076 590.934 157.534 590.71 157.825 590.264C158.121 589.817 158.27 589.245 158.27 588.548V588.254C158.27 587.557 158.121 586.985 157.825 586.538C157.534 586.091 157.076 585.868 156.451 585.868C156.023 585.868 155.66 585.984 155.364 586.217C155.068 586.449 154.854 586.714 154.722 587.01V589.778ZM160.389 585.943V584.802H164.6V585.943H160.389ZM161.605 590.1V585.451V585.246V583.052H163.123V590.086C163.123 590.405 163.187 590.633 163.314 590.77C163.442 590.902 163.631 590.968 163.882 590.968C164.005 590.968 164.123 590.954 164.237 590.927C164.356 590.899 164.474 590.863 164.593 590.817V592C164.479 592.055 164.326 592.103 164.135 592.144C163.943 592.185 163.734 592.205 163.506 592.205C162.927 592.205 162.465 592.036 162.118 591.699C161.776 591.357 161.605 590.824 161.605 590.1ZM165.946 592V584.802H167.478V592H165.946ZM165.782 582.689C165.782 582.443 165.862 582.236 166.021 582.067C166.181 581.899 166.411 581.814 166.712 581.814C167.008 581.814 167.236 581.899 167.396 582.067C167.555 582.236 167.635 582.443 167.635 582.689C167.635 582.931 167.555 583.136 167.396 583.305C167.236 583.473 167.008 583.558 166.712 583.558C166.411 583.558 166.181 583.473 166.021 583.305C165.862 583.136 165.782 582.931 165.782 582.689ZM169.05 588.507V588.288C169.05 587.19 169.369 586.301 170.007 585.622C170.649 584.938 171.497 584.597 172.55 584.597C173.603 584.597 174.448 584.938 175.086 585.622C175.724 586.301 176.043 587.19 176.043 588.288V588.507C176.043 589.61 175.724 590.503 175.086 591.187C174.448 591.866 173.603 592.205 172.55 592.205C171.497 592.205 170.649 591.866 170.007 591.187C169.369 590.503 169.05 589.61 169.05 588.507ZM170.608 588.254V588.548C170.608 589.268 170.772 589.856 171.101 590.312C171.429 590.767 171.912 590.995 172.55 590.995C173.183 590.995 173.664 590.767 173.992 590.312C174.32 589.856 174.484 589.268 174.484 588.548V588.254C174.484 587.534 174.318 586.946 173.985 586.49C173.657 586.03 173.179 585.8 172.55 585.8C171.916 585.8 171.433 586.03 171.101 586.49C170.772 586.946 170.608 587.534 170.608 588.254ZM177.574 592V584.802H178.982L179.037 585.684H179.071C179.308 585.374 179.614 585.125 179.987 584.938C180.361 584.752 180.773 584.658 181.225 584.658C181.954 584.658 182.539 584.868 182.981 585.287C183.424 585.702 183.645 586.406 183.645 587.399V592H182.12V587.372C182.12 586.839 182.002 586.461 181.765 586.237C181.532 586.009 181.197 585.896 180.76 585.896C180.395 585.896 180.067 585.996 179.775 586.196C179.484 586.397 179.258 586.663 179.099 586.996V592H177.574ZM189.093 592V582.047H192.552C193.668 582.047 194.525 582.323 195.122 582.874C195.724 583.425 196.024 584.177 196.024 585.13C196.024 586.082 195.724 586.839 195.122 587.399C194.525 587.96 193.668 588.24 192.552 588.24H190.665V592H189.093ZM190.665 586.996H192.49C193.219 586.996 193.728 586.821 194.015 586.47C194.306 586.114 194.452 585.668 194.452 585.13C194.452 584.592 194.306 584.152 194.015 583.811C193.728 583.464 193.219 583.291 192.49 583.291H190.665V586.996ZM197.344 592V584.802H198.752L198.807 585.677H198.848C199.016 585.39 199.242 585.139 199.524 584.925C199.807 584.706 200.137 584.597 200.516 584.597C200.611 584.597 200.712 584.608 200.816 584.631C200.926 584.654 201.001 584.674 201.042 584.692V586.066C200.955 586.048 200.864 586.035 200.769 586.025C200.673 586.012 200.566 586.005 200.447 586.005C200.074 586.005 199.75 586.107 199.477 586.312C199.203 586.518 199 586.773 198.868 587.078V592H197.344ZM201.671 588.507V588.288C201.671 587.194 201.981 586.306 202.601 585.622C203.22 584.938 204.032 584.597 205.034 584.597C206.037 584.597 206.814 584.918 207.365 585.561C207.917 586.199 208.192 587.067 208.192 588.165V588.76H202.655V587.659H206.675V587.502C206.675 587.023 206.536 586.618 206.258 586.285C205.98 585.948 205.583 585.779 205.068 585.779C204.449 585.779 203.984 586.014 203.674 586.483C203.364 586.948 203.209 587.538 203.209 588.254V588.548C203.209 589.254 203.373 589.842 203.701 590.312C204.034 590.776 204.537 591.009 205.212 591.009C205.645 591.009 206.016 590.911 206.326 590.715C206.641 590.519 206.896 590.289 207.092 590.024L208.117 590.77C207.889 591.143 207.525 591.476 207.023 591.768C206.527 592.059 205.927 592.205 205.226 592.205C204.091 592.205 203.214 591.863 202.594 591.18C201.979 590.496 201.671 589.605 201.671 588.507ZM209.662 594.844V584.802H211.063L211.111 585.697H211.152C211.326 585.406 211.599 585.162 211.973 584.966C212.346 584.765 212.775 584.665 213.258 584.665C214.174 584.665 214.908 585.002 215.459 585.677C216.015 586.351 216.293 587.222 216.293 588.288V588.507C216.293 589.573 216.017 590.446 215.466 591.125C214.919 591.799 214.19 592.137 213.278 592.137C212.795 592.137 212.376 592.052 212.021 591.884C211.665 591.711 211.387 591.48 211.187 591.193V594.844H209.662ZM211.187 589.778C211.314 590.079 211.528 590.348 211.829 590.585C212.134 590.817 212.497 590.934 212.916 590.934C213.54 590.934 213.998 590.71 214.29 590.264C214.586 589.817 214.734 589.245 214.734 588.548V588.254C214.734 587.557 214.586 586.985 214.29 586.538C213.998 586.091 213.54 585.868 212.916 585.868C212.488 585.868 212.125 585.984 211.829 586.217C211.533 586.449 211.319 586.714 211.187 587.01V589.778ZM217.441 589.881C217.441 589.124 217.738 588.546 218.33 588.145C218.923 587.739 219.672 587.534 220.579 587.529H222.131V587.071C222.131 586.675 222.028 586.354 221.823 586.107C221.618 585.857 221.265 585.731 220.764 585.731C220.258 585.731 219.896 585.834 219.677 586.039C219.463 586.244 219.355 586.486 219.355 586.764V586.825H217.845V586.764C217.845 586.167 218.114 585.656 218.651 585.232C219.194 584.809 219.914 584.597 220.812 584.597C221.709 584.597 222.407 584.802 222.903 585.212C223.405 585.622 223.655 586.242 223.655 587.071V590.366C223.655 590.662 223.678 590.943 223.724 591.207C223.774 591.467 223.842 591.695 223.929 591.891V592H222.438C222.379 591.891 222.325 591.747 222.274 591.569C222.224 591.387 222.192 591.209 222.179 591.036C222.024 591.323 221.755 591.578 221.372 591.802C220.989 592.025 220.502 592.137 219.909 592.137C219.221 592.137 218.638 591.945 218.159 591.562C217.681 591.18 217.441 590.619 217.441 589.881ZM218.966 589.771C218.966 590.15 219.075 590.451 219.294 590.674C219.513 590.893 219.857 591.002 220.326 591.002C220.8 591.002 221.219 590.842 221.584 590.523C221.949 590.2 222.131 589.847 222.131 589.464V588.548H220.764C220.167 588.548 219.718 588.657 219.417 588.876C219.116 589.095 218.966 589.393 218.966 589.771ZM224.961 594.844L224.968 593.62C225.086 593.657 225.216 593.686 225.357 593.709C225.503 593.732 225.642 593.743 225.774 593.743C226.089 593.743 226.362 593.632 226.595 593.408C226.832 593.185 227.066 592.706 227.299 591.973L227.271 591.966L224.558 584.802H226.062L227.682 589.354C227.745 589.532 227.798 589.699 227.839 589.854C227.884 590.008 227.925 590.157 227.962 590.298H228.003C228.039 590.157 228.08 590.008 228.126 589.854C228.176 589.699 228.229 589.532 228.283 589.354L229.814 584.802H231.223L228.29 592.923C228.053 593.579 227.734 594.085 227.333 594.44C226.937 594.8 226.449 594.98 225.87 594.98C225.679 594.98 225.51 594.969 225.364 594.946C225.223 594.924 225.089 594.889 224.961 594.844ZM232.18 592V584.802H233.588L233.636 585.69H233.677C233.918 585.371 234.219 585.121 234.579 584.938C234.944 584.756 235.34 584.665 235.769 584.665C236.256 584.665 236.678 584.765 237.033 584.966C237.393 585.162 237.664 585.469 237.847 585.889H237.881C238.163 585.469 238.496 585.162 238.879 584.966C239.262 584.765 239.69 584.665 240.164 584.665C240.902 584.665 241.486 584.879 241.914 585.308C242.342 585.731 242.557 586.442 242.557 587.44V592H241.025V587.393C241.025 586.864 240.914 586.483 240.69 586.251C240.467 586.014 240.148 585.896 239.733 585.896C239.369 585.896 239.05 585.998 238.776 586.203C238.503 586.404 238.286 586.668 238.127 586.996V592H236.603V587.399C236.603 586.866 236.491 586.483 236.268 586.251C236.044 586.014 235.721 585.896 235.297 585.896C234.937 585.896 234.62 585.996 234.347 586.196C234.078 586.397 233.864 586.663 233.704 586.996V592H232.18ZM244.013 588.507V588.288C244.013 587.194 244.323 586.306 244.942 585.622C245.562 584.938 246.373 584.597 247.376 584.597C248.379 584.597 249.156 584.918 249.707 585.561C250.258 586.199 250.534 587.067 250.534 588.165V588.76H244.997V587.659H249.017V587.502C249.017 587.023 248.878 586.618 248.6 586.285C248.322 585.948 247.925 585.779 247.41 585.779C246.79 585.779 246.326 586.014 246.016 586.483C245.706 586.948 245.551 587.538 245.551 588.254V588.548C245.551 589.254 245.715 589.842 246.043 590.312C246.376 590.776 246.879 591.009 247.554 591.009C247.987 591.009 248.358 590.911 248.668 590.715C248.982 590.519 249.238 590.289 249.434 590.024L250.459 590.77C250.231 591.143 249.867 591.476 249.365 591.768C248.868 592.059 248.269 592.205 247.567 592.205C246.433 592.205 245.555 591.863 244.936 591.18C244.32 590.496 244.013 589.605 244.013 588.507ZM252.004 592V584.802H253.412L253.467 585.684H253.501C253.738 585.374 254.043 585.125 254.417 584.938C254.791 584.752 255.203 584.658 255.654 584.658C256.383 584.658 256.969 584.868 257.411 585.287C257.853 585.702 258.074 586.406 258.074 587.399V592H256.55V587.372C256.55 586.839 256.431 586.461 256.194 586.237C255.962 586.009 255.627 585.896 255.189 585.896C254.825 585.896 254.497 585.996 254.205 586.196C253.913 586.397 253.688 586.663 253.528 586.996V592H252.004ZM258.977 585.943V584.802H263.188V585.943H258.977ZM260.193 590.1V585.451V585.246V583.052H261.711V590.086C261.711 590.405 261.775 590.633 261.902 590.77C262.03 590.902 262.219 590.968 262.47 590.968C262.593 590.968 262.711 590.954 262.825 590.927C262.944 590.899 263.062 590.863 263.181 590.817V592C263.067 592.055 262.914 592.103 262.723 592.144C262.531 592.185 262.322 592.205 262.094 592.205C261.515 592.205 261.052 592.036 260.706 591.699C260.364 591.357 260.193 590.824 260.193 590.1ZM267.686 587.338V586.709C267.686 585.16 268.084 583.961 268.882 583.113C269.679 582.266 270.693 581.842 271.924 581.842C273.132 581.842 274.082 582.168 274.774 582.819C275.467 583.471 275.813 584.273 275.813 585.226V585.328H274.234V585.219C274.234 584.599 274.043 584.095 273.66 583.708C273.277 583.321 272.696 583.127 271.917 583.127C271.147 583.127 270.516 583.412 270.023 583.981C269.531 584.547 269.285 585.431 269.285 586.634V587.413C269.285 588.525 269.529 589.389 270.017 590.004C270.504 590.615 271.14 590.92 271.924 590.92C272.658 590.92 273.211 590.722 273.585 590.325C273.959 589.929 274.173 589.43 274.228 588.828L274.234 588.719H275.813L275.807 588.828C275.734 589.771 275.369 590.571 274.713 591.228C274.061 591.879 273.132 592.205 271.924 592.205C270.689 592.205 269.673 591.781 268.875 590.934C268.082 590.081 267.686 588.883 267.686 587.338ZM276.88 588.507V588.288C276.88 587.194 277.19 586.306 277.81 585.622C278.429 584.938 279.241 584.597 280.243 584.597C281.246 584.597 282.023 584.918 282.574 585.561C283.126 586.199 283.401 587.067 283.401 588.165V588.76H277.864V587.659H281.884V587.502C281.884 587.023 281.745 586.618 281.467 586.285C281.189 585.948 280.792 585.779 280.277 585.779C279.658 585.779 279.193 586.014 278.883 586.483C278.573 586.948 278.418 587.538 278.418 588.254V588.548C278.418 589.254 278.582 589.842 278.91 590.312C279.243 590.776 279.746 591.009 280.421 591.009C280.854 591.009 281.225 590.911 281.535 590.715C281.85 590.519 282.105 590.289 282.301 590.024L283.326 590.77C283.098 591.143 282.734 591.476 282.232 591.768C281.736 592.059 281.136 592.205 280.435 592.205C279.3 592.205 278.423 591.863 277.803 591.18C277.188 590.496 276.88 589.605 276.88 588.507ZM284.871 592V584.802H286.279L286.334 585.677H286.375C286.544 585.39 286.769 585.139 287.052 584.925C287.334 584.706 287.665 584.597 288.043 584.597C288.139 584.597 288.239 584.608 288.344 584.631C288.453 584.654 288.528 584.674 288.569 584.692V586.066C288.483 586.048 288.392 586.035 288.296 586.025C288.2 586.012 288.093 586.005 287.975 586.005C287.601 586.005 287.277 586.107 287.004 586.312C286.73 586.518 286.528 586.773 286.396 587.078V592H284.871ZM289.123 585.943V584.802H293.334V585.943H289.123ZM290.34 590.1V585.451V585.246V583.052H291.857V590.086C291.857 590.405 291.921 590.633 292.049 590.77C292.176 590.902 292.366 590.968 292.616 590.968C292.739 590.968 292.858 590.954 292.972 590.927C293.09 590.899 293.209 590.863 293.327 590.817V592C293.213 592.055 293.061 592.103 292.869 592.144C292.678 592.185 292.468 592.205 292.24 592.205C291.661 592.205 291.199 592.036 290.853 591.699C290.511 591.357 290.34 590.824 290.34 590.1ZM294.681 592V584.802H296.212V592H294.681ZM294.517 582.689C294.517 582.443 294.596 582.236 294.756 582.067C294.915 581.899 295.146 581.814 295.446 581.814C295.743 581.814 295.97 581.899 296.13 582.067C296.289 582.236 296.369 582.443 296.369 582.689C296.369 582.931 296.289 583.136 296.13 583.305C295.97 583.473 295.743 583.558 295.446 583.558C295.146 583.558 294.915 583.473 294.756 583.305C294.596 583.136 294.517 582.931 294.517 582.689ZM298.495 592V583.934C298.495 583.09 298.725 582.455 299.186 582.026C299.65 581.593 300.266 581.377 301.031 581.377C301.191 581.377 301.346 581.386 301.496 581.404C301.651 581.423 301.797 581.45 301.934 581.486L301.865 582.662C301.77 582.644 301.667 582.628 301.558 582.614C301.448 582.601 301.337 582.594 301.223 582.594C300.84 582.594 300.544 582.708 300.334 582.936C300.124 583.159 300.02 583.496 300.02 583.947V585.28V585.431V592H298.495ZM297.395 585.943V584.802H299.076H299.37H301.489V585.943H297.395ZM302.439 592V584.802H303.971V592H302.439ZM302.275 582.689C302.275 582.443 302.355 582.236 302.515 582.067C302.674 581.899 302.904 581.814 303.205 581.814C303.501 581.814 303.729 581.899 303.889 582.067C304.048 582.236 304.128 582.443 304.128 582.689C304.128 582.931 304.048 583.136 303.889 583.305C303.729 583.473 303.501 583.558 303.205 583.558C302.904 583.558 302.674 583.473 302.515 583.305C302.355 583.136 302.275 582.931 302.275 582.689ZM305.55 588.507V588.288C305.55 587.185 305.857 586.294 306.473 585.615C307.092 584.936 307.931 584.597 308.988 584.597C309.973 584.597 310.722 584.856 311.237 585.376C311.752 585.896 312.017 586.486 312.03 587.146V587.215H310.554V587.16C310.554 586.791 310.426 586.472 310.171 586.203C309.92 585.93 309.524 585.793 308.981 585.793C308.348 585.793 307.876 586.028 307.566 586.497C307.261 586.962 307.108 587.548 307.108 588.254V588.548C307.108 589.254 307.259 589.842 307.56 590.312C307.865 590.776 308.339 591.009 308.981 591.009C309.537 591.009 309.936 590.872 310.178 590.599C310.424 590.321 310.547 589.999 310.547 589.635V589.587H312.03V589.642C312.03 590.302 311.768 590.895 311.244 591.419C310.725 591.943 309.973 592.205 308.988 592.205C307.931 592.205 307.092 591.866 306.473 591.187C305.857 590.503 305.55 589.61 305.55 588.507ZM313.049 589.881C313.049 589.124 313.345 588.546 313.938 588.145C314.53 587.739 315.28 587.534 316.187 587.529H317.738V587.071C317.738 586.675 317.636 586.354 317.431 586.107C317.226 585.857 316.872 585.731 316.371 585.731C315.865 585.731 315.503 585.834 315.284 586.039C315.07 586.244 314.963 586.486 314.963 586.764V586.825H313.452V586.764C313.452 586.167 313.721 585.656 314.259 585.232C314.801 584.809 315.521 584.597 316.419 584.597C317.317 584.597 318.014 584.802 318.511 585.212C319.012 585.622 319.263 586.242 319.263 587.071V590.366C319.263 590.662 319.285 590.943 319.331 591.207C319.381 591.467 319.45 591.695 319.536 591.891V592H318.046C317.987 591.891 317.932 591.747 317.882 591.569C317.832 591.387 317.8 591.209 317.786 591.036C317.631 591.323 317.362 591.578 316.979 591.802C316.597 592.025 316.109 592.137 315.517 592.137C314.828 592.137 314.245 591.945 313.767 591.562C313.288 591.18 313.049 590.619 313.049 589.881ZM314.573 589.771C314.573 590.15 314.683 590.451 314.901 590.674C315.12 590.893 315.464 591.002 315.934 591.002C316.408 591.002 316.827 590.842 317.191 590.523C317.556 590.2 317.738 589.847 317.738 589.464V588.548H316.371C315.774 588.548 315.325 588.657 315.024 588.876C314.724 589.095 314.573 589.393 314.573 589.771ZM320.227 585.943V584.802H324.438V585.943H320.227ZM321.443 590.1V585.451V585.246V583.052H322.961V590.086C322.961 590.405 323.025 590.633 323.152 590.77C323.28 590.902 323.469 590.968 323.72 590.968C323.843 590.968 323.961 590.954 324.075 590.927C324.194 590.899 324.312 590.863 324.431 590.817V592C324.317 592.055 324.164 592.103 323.973 592.144C323.781 592.185 323.572 592.205 323.344 592.205C322.765 592.205 322.302 592.036 321.956 591.699C321.614 591.357 321.443 590.824 321.443 590.1ZM325.319 588.507V588.288C325.319 587.194 325.629 586.306 326.249 585.622C326.869 584.938 327.68 584.597 328.683 584.597C329.685 584.597 330.462 584.918 331.014 585.561C331.565 586.199 331.841 587.067 331.841 588.165V588.76H326.304V587.659H330.323V587.502C330.323 587.023 330.184 586.618 329.906 586.285C329.628 585.948 329.232 585.779 328.717 585.779C328.097 585.779 327.632 586.014 327.322 586.483C327.012 586.948 326.857 587.538 326.857 588.254V588.548C326.857 589.254 327.021 589.842 327.35 590.312C327.682 590.776 328.186 591.009 328.86 591.009C329.293 591.009 329.665 590.911 329.975 590.715C330.289 590.519 330.544 590.289 330.74 590.024L331.766 590.77C331.538 591.143 331.173 591.476 330.672 591.768C330.175 592.059 329.576 592.205 328.874 592.205C327.739 592.205 326.862 591.863 326.242 591.18C325.627 590.496 325.319 589.605 325.319 588.507Z" fill="#373A3E"/>
<circle cx="46" cy="587" r="23.75" fill="#005EB8" stroke="white" stroke-width="0.5"/>
<g clip-path="url(#clip3_6_202)">
<path d="M65.2 579H26.8V593.4H65.2V579Z" fill="white"/>
<path d="M30.5535 580.39H34.7304L37.2909 588.428H37.3298L39.086 580.39H42.241L39.5872 591.982H35.4298L32.811 583.961H32.776L31.0392 591.982H27.8842L30.5535 580.39Z" fill="#005EB8"/>
<path d="M43.4727 580.39H46.8259L45.839 584.825H49.8022L50.7891 580.39H54.1422L51.5429 591.982H48.1703L49.2815 587.017H45.3377L44.2265 591.982H40.8772L43.4727 580.39Z" fill="#005EB8"/>
<path d="M62.9585 583.014C62.099 582.647 61.1613 582.465 60.2153 582.481C58.8904 582.481 57.8141 582.665 57.8141 583.594C57.8141 585.239 62.6709 584.623 62.6709 588.144C62.6709 591.348 59.4615 592.18 56.5591 592.18C55.24 592.151 53.9318 591.95 52.6736 591.582L53.4507 589.224C54.1151 589.624 55.4401 589.89 56.5319 589.89C57.6237 589.89 59.2012 589.706 59.2012 588.511C59.2012 586.65 54.3443 587.348 54.3443 584.076C54.3443 581.088 57.1769 580.188 59.92 580.188C61.4742 580.188 62.9118 580.339 63.755 580.703L62.9585 583.014Z" fill="#005EB8"/>
</g>
</g>
<defs>
<linearGradient id="paint0_linear_6_202" x1="175.5" y1="316.5" x2="180" y2="464" gradientUnits="userSpaceOnUse">
<stop stop-color="#0C2A47"/>
<stop offset="1" stop-color="#05335F" stop-opacity="0"/>
</linearGradient>
<clipPath id="clip0_6_202">
<rect width="360" height="800" fill="white"/>
</clipPath>
<clipPath id="clip1_6_202">
<rect width="20" height="20" fill="white" transform="translate(31 261)"/>
</clipPath>
<clipPath id="clip2_6_202">
<rect width="59" height="19" fill="white" transform="translate(278 433)"/>
</clipPath>
<clipPath id="clip3_6_202">
<rect width="38.4" height="14.4" fill="white" transform="translate(26.8 579)"/>
</clipPath>
</defs>
</svg>
